<svg id="visual" viewBox="0 0 900 100" width="900" height="100" xmlns="http://www.w3.org/2000/svg" xmlns:xlink="http://www.w3.org/1999/xlink" version="1.1"><path d="M0 90L7.5 76C15 62 30 34 45 27.8C60 21.7 75 37.3 90 42.7C105 48 120 43 135 46.5C150 50 165 62 180 68.5C195 75 210 76 225 74.2C240 72.3 255 67.7 270 57.8C285 48 300 33 315 36.3C330 39.7 345 61.3 360 59.7C375 58 390 33 405 25.2C420 17.3 435 26.7 450 25.5C465 24.3 480 12.7 495 20C510 27.3 525 53.7 540 53.7C555 53.7 570 27.3 585 20.8C600 14.3 615 27.7 630 43.7C645 59.7 660 78.3 675 86.5C690 94.7 705 92.3 720 83.2C735 74 750 58 765 58.3C780 58.7 795 75.3 810 81C825 86.7 840 81.3 855 68.8C870 56.3 885 36.7 892.5 26.8L900 17L900 0L892.5 0C885 0 870 0 855 0C840 0 825 0 810 0C795 0 780 0 765 0C750 0 735 0 720 0C705 0 690 0 675 0C660 0 645 0 630 0C615 0 600 0 585 0C570 0 555 0 540 0C525 0 510 0 495 0C480 0 465 0 450 0C435 0 420 0 405 0C390 0 375 0 360 0C345 0 330 0 315 0C300 0 285 0 270 0C255 0 240 0 225 0C210 0 195 0 180 0C165 0 150 0 135 0C120 0 105 0 90 0C75 0 60 0 45 0C30 0 15 0 7.5 0L0 0Z" fill="#4facf7"></path><path d="M0 32L7.5 27.2C15 22.3 30 12.7 45 9.2C60 5.7 75 8.3 90 10.2C105 12 120 13 135 17.8C150 22.7 165 31.3 180 34.3C195 37.3 210 34.7 225 28.8C240 23 255 14 270 14.5C285 15 300 25 315 31.5C330 38 345 41 360 45.5C375 50 390 56 405 48.8C420 41.7 435 21.3 450 15.7C465 10 480 19 495 27.8C510 36.7 525 45.3 540 48.8C555 52.3 570 50.7 585 49.5C600 48.3 615 47.7 630 47C645 46.3 660 45.7 675 37.8C690 30 705 15 720 19.2C735 23.3 750 46.7 765 50.2C780 53.7 795 37.3 810 35.7C825 34 840 47 855 55C870 63 885 66 892.5 67.5L900 69L900 0L892.5 0C885 0 870 0 855 0C840 0 825 0 810 0C795 0 780 0 765 0C750 0 735 0 720 0C705 0 690 0 675 0C660 0 645 0 630 0C615 0 600 0 585 0C570 0 555 0 540 0C525 0 510 0 495 0C480 0 465 0 450 0C435 0 420 0 405 0C390 0 375 0 360 0C345 0 330 0 315 0C300 0 285 0 270 0C255 0 240 0 225 0C210 0 195 0 180 0C165 0 150 0 135 0C120 0 105 0 90 0C75 0 60 0 45 0C30 0 15 0 7.5 0L0 0Z" fill="#275984"></path><path d="M0 39L7.5 36.8C15 34.7 30 30.3 45 31C60 31.7 75 37.3 90 35.8C105 34.3 120 25.7 135 19.3C150 13 165 9 180 7.8C195 6.7 210 8.3 225 7.5C240 6.7 255 3.3 270 5.2C285 7 300 14 315 18.2C330 22.3 345 23.7 360 24.5C375 25.3 390 25.7 405 26.7C420 27.7 435 29.3 450 27.8C465 26.3 480 21.7 495 21.8C510 22 525 27 540 31.7C555 36.3 570 40.7 585 36.7C600 32.7 615 20.3 630 20.5C645 20.7 660 33.3 675 34C690 34.7 705 23.3 720 20.2C735 17 750 22 765 24.5C780 27 795 27 810 25.2C825 23.3 840 19.7 855 15.8C870 12 885 8 892.5 6L900 4L900 0L892.5 0C885 0 870 0 855 0C840 0 825 0 810 0C795 0 780 0 765 0C750 0 735 0 720 0C705 0 690 0 675 0C660 0 645 0 630 0C615 0 600 0 585 0C570 0 555 0 540 0C525 0 510 0 495 0C480 0 465 0 450 0C435 0 420 0 405 0C390 0 375 0 360 0C345 0 330 0 315 0C300 0 285 0 270 0C255 0 240 0 225 0C210 0 195 0 180 0C165 0 150 0 135 0C120 0 105 0 90 0C75 0 60 0 45 0C30 0 15 0 7.5 0L0 0Z" fill="#001122"></path></svg>