<svg id="visual" viewBox="0 0 900 100" width="900" height="100" xmlns="http://www.w3.org/2000/svg" xmlns:xlink="http://www.w3.org/1999/xlink" version="1.1"><path d="M0 26L21.5 26.7C43 27.3 86 28.7 128.8 29C171.7 29.3 214.3 28.7 257.2 28.7C300 28.7 343 29.3 385.8 30.5C428.7 31.7 471.3 33.3 514.2 32.3C557 31.3 600 27.7 642.8 27.7C685.7 27.7 728.3 31.3 771.2 32.8C814 34.3 857 33.7 878.5 33.3L900 33L900 0L878.5 0C857 0 814 0 771.2 0C728.3 0 685.7 0 642.8 0C600 0 557 0 514.2 0C471.3 0 428.7 0 385.8 0C343 0 300 0 257.2 0C214.3 0 171.7 0 128.8 0C86 0 43 0 21.5 0L0 0Z" fill="#0066ff"></path><path d="M0 29L21.5 29.3C43 29.7 86 30.3 128.8 28.8C171.7 27.3 214.3 23.7 257.2 23.5C300 23.3 343 26.7 385.8 27.7C428.7 28.7 471.3 27.3 514.2 26.5C557 25.7 600 25.3 642.8 25C685.7 24.7 728.3 24.3 771.2 24.2C814 24 857 24 878.5 24L900 24L900 0L878.5 0C857 0 814 0 771.2 0C728.3 0 685.7 0 642.8 0C600 0 557 0 514.2 0C471.3 0 428.7 0 385.8 0C343 0 300 0 257.2 0C214.3 0 171.7 0 128.8 0C86 0 43 0 21.5 0L0 0Z" fill="#007aff"></path><path d="M0 26L21.5 25.3C43 24.7 86 23.3 128.8 22.8C171.7 22.3 214.3 22.7 257.2 21.8C300 21 343 19 385.8 18.5C428.7 18 471.3 19 514.2 19.3C557 19.7 600 19.3 642.8 20.2C685.7 21 728.3 23 771.2 22.3C814 21.7 857 18.3 878.5 16.7L900 15L900 0L878.5 0C857 0 814 0 771.2 0C728.3 0 685.7 0 642.8 0C600 0 557 0 514.2 0C471.3 0 428.7 0 385.8 0C343 0 300 0 257.2 0C214.3 0 171.7 0 128.8 0C86 0 43 0 21.5 0L0 0Z" fill="#008cff"></path><path d="M0 10L21.5 11.3C43 12.7 86 15.3 128.8 15.7C171.7 16 214.3 14 257.2 14C300 14 343 16 385.8 15.5C428.7 15 471.3 12 514.2 10.8C557 9.7 600 10.3 642.8 10.7C685.7 11 728.3 11 771.2 10.7C814 10.3 857 9.7 878.5 9.3L900 9L900 0L878.5 0C857 0 814 0 771.2 0C728.3 0 685.7 0 642.8 0C600 0 557 0 514.2 0C471.3 0 428.7 0 385.8 0C343 0 300 0 257.2 0C214.3 0 171.7 0 128.8 0C86 0 43 0 21.5 0L0 0Z" fill="#2b9dfc"></path><path d="M0 8L21.5 8.2C43 8.3 86 8.7 128.8 8.7C171.7 8.7 214.3 8.3 257.2 8C300 7.7 343 7.3 385.8 7C428.7 6.7 471.3 6.3 514.2 6.2C557 6 600 6 642.8 6.7C685.7 7.3 728.3 8.7 771.2 8.3C814 8 857 6 878.5 5L900 4L900 0L878.5 0C857 0 814 0 771.2 0C728.3 0 685.7 0 642.8 0C600 0 557 0 514.2 0C471.3 0 428.7 0 385.8 0C343 0 300 0 257.2 0C214.3 0 171.7 0 128.8 0C86 0 43 0 21.5 0L0 0Z" fill="#4facf7"></path></svg>