<svg id="visual" viewBox="0 0 900 100" width="900" height="100" xmlns="http://www.w3.org/2000/svg" xmlns:xlink="http://www.w3.org/1999/xlink" version="1.1"><path d="M0 8L7.5 22C15 36 30 64 45 70.2C60 76.3 75 60.7 90 55.3C105 50 120 55 135 51.5C150 48 165 36 180 29.5C195 23 210 22 225 23.8C240 25.7 255 30.3 270 40.2C285 50 300 65 315 61.7C330 58.3 345 36.7 360 38.3C375 40 390 65 405 72.8C420 80.7 435 71.3 450 72.5C465 73.7 480 85.3 495 78C510 70.7 525 44.3 540 44.3C555 44.3 570 70.7 585 77.2C600 83.7 615 70.3 630 54.3C645 38.3 660 19.7 675 11.5C690 3.3 705 5.7 720 14.8C735 24 750 40 765 39.7C780 39.3 795 22.7 810 17C825 11.3 840 16.7 855 29.2C870 41.7 885 61.3 892.5 71.2L900 81L900 101L892.5 101C885 101 870 101 855 101C840 101 825 101 810 101C795 101 780 101 765 101C750 101 735 101 720 101C705 101 690 101 675 101C660 101 645 101 630 101C615 101 600 101 585 101C570 101 555 101 540 101C525 101 510 101 495 101C480 101 465 101 450 101C435 101 420 101 405 101C390 101 375 101 360 101C345 101 330 101 315 101C300 101 285 101 270 101C255 101 240 101 225 101C210 101 195 101 180 101C165 101 150 101 135 101C120 101 105 101 90 101C75 101 60 101 45 101C30 101 15 101 7.5 101L0 101Z" fill="#4facf7"></path><path d="M0 66L7.5 70.8C15 75.7 30 85.3 45 88.8C60 92.3 75 89.7 90 87.8C105 86 120 85 135 80.2C150 75.3 165 66.7 180 63.7C195 60.7 210 63.3 225 69.2C240 75 255 84 270 83.5C285 83 300 73 315 66.5C330 60 345 57 360 52.5C375 48 390 42 405 49.2C420 56.3 435 76.7 450 82.3C465 88 480 79 495 70.2C510 61.3 525 52.7 540 49.2C555 45.7 570 47.3 585 48.5C600 49.7 615 50.3 630 51C645 51.7 660 52.3 675 60.3C690 68.3 705 83.7 720 79.5C735 75.3 750 51.7 765 48C780 44.3 795 60.7 810 62.3C825 64 840 51 855 43C870 35 885 32 892.5 30.5L900 29L900 101L892.5 101C885 101 870 101 855 101C840 101 825 101 810 101C795 101 780 101 765 101C750 101 735 101 720 101C705 101 690 101 675 101C660 101 645 101 630 101C615 101 600 101 585 101C570 101 555 101 540 101C525 101 510 101 495 101C480 101 465 101 450 101C435 101 420 101 405 101C390 101 375 101 360 101C345 101 330 101 315 101C300 101 285 101 270 101C255 101 240 101 225 101C210 101 195 101 180 101C165 101 150 101 135 101C120 101 105 101 90 101C75 101 60 101 45 101C30 101 15 101 7.5 101L0 101Z" fill="#275984"></path><path d="M0 59L7.5 61.2C15 63.3 30 67.7 45 67C60 66.3 75 60.7 90 62.2C105 63.7 120 72.3 135 78.7C150 85 165 89 180 90.2C195 91.3 210 89.7 225 90.5C240 91.3 255 94.7 270 92.8C285 91 300 84 315 79.8C330 75.7 345 74.3 360 73.5C375 72.7 390 72.3 405 71.3C420 70.3 435 68.7 450 70.2C465 71.7 480 76.3 495 76.2C510 76 525 71 540 66.3C555 61.7 570 57.3 585 61.3C600 65.3 615 77.7 630 77.5C645 77.3 660 64.7 675 64C690 63.3 705 74.7 720 77.8C735 81 750 76 765 73.5C780 71 795 71 810 72.8C825 74.7 840 78.3 855 82.2C870 86 885 90 892.5 92L900 94L900 101L892.5 101C885 101 870 101 855 101C840 101 825 101 810 101C795 101 780 101 765 101C750 101 735 101 720 101C705 101 690 101 675 101C660 101 645 101 630 101C615 101 600 101 585 101C570 101 555 101 540 101C525 101 510 101 495 101C480 101 465 101 450 101C435 101 420 101 405 101C390 101 375 101 360 101C345 101 330 101 315 101C300 101 285 101 270 101C255 101 240 101 225 101C210 101 195 101 180 101C165 101 150 101 135 101C120 101 105 101 90 101C75 101 60 101 45 101C30 101 15 101 7.5 101L0 101Z" fill="#001122"></path></svg>