<svg id="visual" viewBox="0 0 900 100" width="900" height="100" xmlns="http://www.w3.org/2000/svg" xmlns:xlink="http://www.w3.org/1999/xlink" version="1.1"><path d="M0 8L13.7 8.3C27.3 8.7 54.7 9.3 82 10.2C109.3 11 136.7 12 163.8 12C191 12 218 11 245.2 11.5C272.3 12 299.7 14 327 15.2C354.3 16.3 381.7 16.7 409 16.7C436.3 16.7 463.7 16.3 491 14.7C518.3 13 545.7 10 573 9.8C600.3 9.7 627.7 12.3 654.8 12.8C682 13.3 709 11.7 736.2 11.8C763.3 12 790.7 14 818 13.5C845.3 13 872.7 10 886.3 8.5L900 7L900 0L886.3 0C872.7 0 845.3 0 818 0C790.7 0 763.3 0 736.2 0C709 0 682 0 654.8 0C627.7 0 600.3 0 573 0C545.7 0 518.3 0 491 0C463.7 0 436.3 0 409 0C381.7 0 354.3 0 327 0C299.7 0 272.3 0 245.2 0C218 0 191 0 163.8 0C136.7 0 109.3 0 82 0C54.7 0 27.3 0 13.7 0L0 0Z" fill="#8bc6f9"></path><path d="M0 19L13.7 20.7C27.3 22.3 54.7 25.7 82 26.7C109.3 27.7 136.7 26.3 163.8 26.2C191 26 218 27 245.2 27C272.3 27 299.7 26 327 26C354.3 26 381.7 27 409 26.8C436.3 26.7 463.7 25.3 491 24.3C518.3 23.3 545.7 22.7 573 22.7C600.3 22.7 627.7 23.3 654.8 23.3C682 23.3 709 22.7 736.2 23.5C763.3 24.3 790.7 26.7 818 27C845.3 27.3 872.7 25.7 886.3 24.8L900 24L900 5L886.3 6.5C872.7 8 845.3 11 818 11.5C790.7 12 763.3 10 736.2 9.8C709 9.7 682 11.3 654.8 10.8C627.7 10.3 600.3 7.7 573 7.8C545.7 8 518.3 11 491 12.7C463.7 14.3 436.3 14.7 409 14.7C381.7 14.7 354.3 14.3 327 13.2C299.7 12 272.3 10 245.2 9.5C218 9 191 10 163.8 10C136.7 10 109.3 9 82 8.2C54.7 7.3 27.3 6.7 13.7 6.3L0 6Z" fill="#6fb9f8"></path><path d="M0 33L13.7 34.3C27.3 35.7 54.7 38.3 82 39.3C109.3 40.3 136.7 39.7 163.8 40.2C191 40.7 218 42.3 245.2 42.5C272.3 42.7 299.7 41.3 327 41C354.3 40.7 381.7 41.3 409 41C436.3 40.7 463.7 39.3 491 40.5C518.3 41.7 545.7 45.3 573 46.2C600.3 47 627.7 45 654.8 43.3C682 41.7 709 40.3 736.2 41.7C763.3 43 790.7 47 818 47.7C845.3 48.3 872.7 45.7 886.3 44.3L900 43L900 22L886.3 22.8C872.7 23.7 845.3 25.3 818 25C790.7 24.7 763.3 22.3 736.2 21.5C709 20.7 682 21.3 654.8 21.3C627.7 21.3 600.3 20.7 573 20.7C545.7 20.7 518.3 21.3 491 22.3C463.7 23.3 436.3 24.7 409 24.8C381.7 25 354.3 24 327 24C299.7 24 272.3 25 245.2 25C218 25 191 24 163.8 24.2C136.7 24.3 109.3 25.7 82 24.7C54.7 23.7 27.3 20.3 13.7 18.7L0 17Z" fill="#4facf7"></path><path d="M0 65L13.7 66.5C27.3 68 54.7 71 82 70.7C109.3 70.3 136.7 66.7 163.8 66.7C191 66.7 218 70.3 245.2 73.2C272.3 76 299.7 78 327 78C354.3 78 381.7 76 409 76.7C436.3 77.3 463.7 80.7 491 82C518.3 83.3 545.7 82.7 573 83C600.3 83.3 627.7 84.7 654.8 82.3C682 80 709 74 736.2 72.7C763.3 71.3 790.7 74.7 818 75.2C845.3 75.7 872.7 73.3 886.3 72.2L900 71L900 41L886.3 42.3C872.7 43.7 845.3 46.3 818 45.7C790.7 45 763.3 41 736.2 39.7C709 38.3 682 39.7 654.8 41.3C627.7 43 600.3 45 573 44.2C545.7 43.3 518.3 39.7 491 38.5C463.7 37.3 436.3 38.7 409 39C381.7 39.3 354.3 38.7 327 39C299.7 39.3 272.3 40.7 245.2 40.5C218 40.3 191 38.7 163.8 38.2C136.7 37.7 109.3 38.3 82 37.3C54.7 36.3 27.3 33.7 13.7 32.3L0 31Z" fill="#4395d9"></path><path d="M0 101L13.7 101C27.3 101 54.7 101 82 101C109.3 101 136.7 101 163.8 101C191 101 218 101 245.2 101C272.3 101 299.7 101 327 101C354.3 101 381.7 101 409 101C436.3 101 463.7 101 491 101C518.3 101 545.7 101 573 101C600.3 101 627.7 101 654.8 101C682 101 709 101 736.2 101C763.3 101 790.7 101 818 101C845.3 101 872.7 101 886.3 101L900 101L900 69L886.3 70.2C872.7 71.3 845.3 73.7 818 73.2C790.7 72.7 763.3 69.3 736.2 70.7C709 72 682 78 654.8 80.3C627.7 82.7 600.3 81.3 573 81C545.7 80.7 518.3 81.3 491 80C463.7 78.7 436.3 75.3 409 74.7C381.7 74 354.3 76 327 76C299.7 76 272.3 74 245.2 71.2C218 68.3 191 64.7 163.8 64.7C136.7 64.7 109.3 68.3 82 68.7C54.7 69 27.3 66 13.7 64.5L0 63Z" fill="#377ebb"></path></svg>