<?xml version="1.0" standalone="no"?>
<!DOCTYPE svg PUBLIC "-//W3C//DTD SVG 20010904//EN"
 "http://www.w3.org/TR/2001/REC-SVG-20010904/DTD/svg10.dtd">
<svg version="1.0" xmlns="http://www.w3.org/2000/svg"
 width="361.000000pt" height="361.000000pt" viewBox="0 0 361.000000 361.000000"
 preserveAspectRatio="xMidYMid meet">
<metadata>
Created by potrace 1.14, written by Peter Selinger 2001-2017
</metadata>
<g transform="translate(0.000000,361.000000) scale(0.100000,-0.100000)"
fill="#000000" stroke="none">
<path d="M1595 3290 c3 -5 8 -10 11 -10 2 0 4 5 4 10 0 6 -5 10 -11 10 -5 0
-7 -4 -4 -10z"/>
<path d="M1670 3210 c0 -5 5 -10 11 -10 5 0 7 5 4 10 -3 6 -8 10 -11 10 -2 0
-4 -4 -4 -10z"/>
<path d="M1815 3201 c-3 -5 -2 -12 3 -15 5 -3 9 1 9 9 0 17 -3 19 -12 6z"/>
<path d="M1899 3198 c-5 -18 -6 -38 -1 -34 7 8 12 36 6 36 -2 0 -4 -1 -5 -2z"/>
<path d="M1756 3177 c3 -10 9 -15 12 -12 3 3 0 11 -7 18 -10 9 -11 8 -5 -6z"/>
<path d="M1680 3170 c-9 -6 -10 -10 -3 -10 6 0 15 5 18 10 8 12 4 12 -15 0z"/>
<path d="M1515 3149 c-3 -4 2 -6 10 -5 21 3 28 13 10 13 -9 0 -18 -4 -20 -8z"/>
<path d="M2096 3152 c-2 -4 -1 -14 4 -22 7 -11 9 -9 7 8 -1 24 -3 26 -11 14z"/>
<path d="M1306 3135 c-11 -8 -15 -15 -9 -15 6 0 16 7 23 15 16 19 11 19 -14 0z"/>
<path d="M1650 3131 c0 -6 4 -13 10 -16 6 -3 7 1 4 9 -7 18 -14 21 -14 7z"/>
<path d="M1950 3131 c0 -6 4 -13 10 -16 6 -3 7 1 4 9 -7 18 -14 21 -14 7z"/>
<path d="M2206 3128 c3 -5 10 -6 15 -3 13 9 11 12 -6 12 -8 0 -12 -4 -9 -9z"/>
<path d="M1415 3110 c3 -5 8 -10 11 -10 2 0 4 5 4 10 0 6 -5 10 -11 10 -5 0
-7 -4 -4 -10z"/>
<path d="M1785 3110 c-3 -6 1 -7 9 -4 18 7 21 14 7 14 -6 0 -13 -4 -16 -10z"/>
<path d="M1915 3111 c-3 -5 -2 -12 3 -15 5 -3 9 1 9 9 0 17 -3 19 -12 6z"/>
<path d="M2170 3110 c0 -5 5 -10 11 -10 5 0 7 5 4 10 -3 6 -8 10 -11 10 -2 0
-4 -4 -4 -10z"/>
<path d="M1756 3101 c-4 -5 -17 -8 -31 -6 -14 1 -27 -1 -30 -5 -8 -12 54 -5
67 8 6 6 9 12 6 12 -4 0 -9 -4 -12 -9z"/>
<path d="M1615 3090 c-2 -3 9 -6 25 -6 17 0 27 2 25 5 -8 7 -45 9 -50 1z"/>
<path d="M1800 3096 c0 -2 8 -10 18 -17 15 -13 16 -12 3 4 -13 16 -21 21 -21
13z"/>
<path d="M1953 3082 c0 -10 7 -19 14 -19 9 0 10 4 3 12 -5 7 -7 15 -3 18 3 4
1 7 -5 7 -6 0 -10 -8 -9 -18z"/>
<path d="M1993 3085 c0 -8 4 -12 9 -9 5 3 6 10 3 15 -9 13 -12 11 -12 -6z"/>
<path d="M1791 3063 c7 -12 15 -20 18 -17 3 2 -3 12 -13 22 -17 16 -18 16 -5
-5z"/>
<path d="M1904 3072 c4 -3 14 -7 22 -8 9 -1 13 0 10 4 -4 3 -14 7 -22 8 -9 1
-13 0 -10 -4z"/>
<path d="M1384 3057 c-10 -5 -27 -18 -37 -29 -10 -10 -22 -16 -28 -13 -5 4 -9
1 -9 -6 0 -8 -5 -7 -17 2 -14 12 -16 12 -9 0 6 -9 5 -12 -5 -9 -7 2 -23 -6
-34 -18 -17 -18 -24 -21 -34 -11 -10 9 -11 8 -6 -5 5 -14 2 -16 -15 -13 -13 2
-20 2 -17 -2 4 -3 -5 -16 -18 -29 -14 -13 -25 -28 -25 -34 0 -6 -10 -15 -22
-20 -19 -7 -19 -9 -5 -9 10 -1 15 -6 12 -11 -4 -6 -10 -8 -14 -6 -4 3 -8 -1
-8 -9 0 -8 4 -12 9 -9 16 10 8 -5 -17 -32 -13 -14 -22 -31 -18 -37 4 -6 1 -7
-7 -2 -10 6 -12 3 -8 -13 4 -12 3 -22 -1 -22 -4 0 -6 -14 -5 -30 1 -21 -4 -33
-17 -41 -10 -5 -19 -19 -19 -30 0 -11 -4 -18 -9 -15 -5 3 -8 -6 -8 -19 0 -14
4 -25 9 -25 5 0 3 -6 -4 -14 -7 -8 -17 -12 -21 -9 -5 3 -4 -4 2 -16 7 -11 16
-21 21 -21 6 0 10 -5 10 -11 0 -5 -4 -7 -10 -4 -6 3 -10 1 -10 -4 0 -6 6 -11
13 -11 8 0 7 -4 -3 -10 -22 -14 -30 -12 -24 8 5 15 4 15 -6 2 -9 -11 -13 -12
-17 -2 -2 6 -9 12 -15 12 -7 0 -6 -5 1 -14 10 -12 8 -17 -7 -25 -11 -6 -22 -8
-25 -5 -3 3 -10 -4 -17 -15 -7 -14 -7 -21 0 -21 5 0 10 7 10 16 0 8 4 13 9 10
4 -3 17 1 27 9 24 18 40 19 27 3 -6 -7 -10 -21 -10 -31 0 -16 2 -16 25 -1 13
8 26 13 30 10 3 -3 2 -6 -2 -6 -4 0 -1 -10 6 -22 19 -36 18 -68 -4 -68 -10 0
-18 5 -18 10 0 6 6 9 13 8 14 -3 10 35 -4 40 -5 2 -6 9 -3 14 4 6 3 8 -3 5 -6
-4 -23 -11 -38 -17 -15 -6 -25 -13 -22 -16 3 -3 15 0 27 6 32 17 36 5 6 -15
-21 -14 -29 -15 -41 -5 -18 15 -20 41 -3 38 6 -2 13 6 15 17 l3 20 -9 -20 c-5
-11 -10 -15 -11 -10 0 6 -7 2 -15 -9 -13 -17 -12 -21 11 -39 34 -26 25 -31
-17 -9 -36 19 -54 56 -22 46 15 -5 15 -4 3 4 -19 14 -29 7 -27 -19 1 -13 13
-26 33 -34 25 -10 31 -18 27 -33 -4 -16 0 -19 22 -19 14 0 32 -9 40 -19 17
-24 11 -31 -11 -13 -9 8 -31 14 -48 15 -17 1 -25 -1 -18 -3 14 -6 16 -23 2
-23 -6 0 -19 15 -30 33 -11 17 -20 26 -20 18 0 -8 7 -22 15 -31 14 -15 14 -19
-3 -40 -15 -19 -22 -21 -40 -11 -26 14 -32 14 -32 0 0 -5 4 -8 9 -5 4 3 16 -1
26 -8 16 -12 21 -11 35 7 12 14 19 17 24 9 4 -7 3 -12 -2 -12 -20 0 -21 -31
-2 -47 20 -18 28 -39 10 -28 -6 4 -7 -1 -3 -11 4 -10 2 -15 -3 -11 -6 3 -16 1
-24 -4 -13 -8 -13 -10 0 -19 8 -5 24 -7 35 -3 20 6 20 5 1 -15 -16 -19 -20
-19 -33 -7 -8 8 -20 15 -26 15 -7 0 -6 -4 3 -10 8 -5 11 -13 6 -17 -4 -4 -16
2 -26 14 -16 20 -19 21 -25 6 -3 -10 -3 -14 1 -10 4 4 14 1 22 -6 8 -6 35 -12
60 -12 30 0 47 -5 50 -14 3 -9 0 -11 -9 -6 -11 6 -12 5 -1 -6 6 -7 12 -18 12
-24 -1 -5 -8 -1 -18 10 -11 14 -30 21 -54 22 -21 0 -35 -3 -32 -8 2 -5 18 -7
34 -5 17 2 34 -2 40 -9 15 -17 -62 -14 -84 4 -14 12 -16 12 -10 -3 3 -9 10
-16 16 -16 5 0 6 -5 2 -12 -4 -7 -3 -8 4 -4 19 11 14 -5 -5 -20 -22 -17 -44
-18 -40 -2 1 6 -6 14 -15 16 -10 2 -18 -1 -18 -7 0 -6 7 -7 17 -4 11 4 14 3 9
-5 -4 -7 -1 -15 8 -18 18 -7 66 23 66 42 0 8 8 13 20 11 22 -4 40 -17 22 -17
-18 0 -23 -3 -54 -29 -15 -14 -26 -27 -23 -29 2 -2 11 3 20 12 31 31 52 37 66
19 12 -14 11 -15 -7 -9 -15 4 -27 -1 -45 -21 -13 -14 -18 -23 -10 -18 11 6 13
4 8 -8 -4 -11 -2 -14 9 -10 12 4 12 8 2 21 -11 13 -9 14 12 8 18 -5 21 -5 10
3 -8 5 -11 14 -6 18 5 4 11 2 13 -5 3 -8 9 -10 16 -3 7 5 17 11 22 13 6 1 9 6
8 10 -2 4 6 6 17 5 20 -1 27 -12 13 -20 -5 -2 -3 -2 4 -1 7 2 15 -1 18 -7 14
-22 24 4 11 29 -13 25 -13 28 2 28 13 0 17 -11 18 -48 1 -38 -2 -48 -15 -48
-13 0 -13 2 -3 9 11 7 11 9 -2 14 -9 4 -16 2 -16 -4 0 -6 -7 -3 -16 6 -10 10
-24 13 -38 9 -30 -9 -79 -61 -71 -75 4 -6 1 -15 -6 -20 -12 -7 -11 -9 1 -9 8
0 2 -9 -15 -20 -16 -11 -25 -20 -19 -20 5 0 15 5 22 12 9 9 12 8 12 -5 0 -9
-4 -17 -10 -17 -5 0 -10 -7 -10 -15 0 -8 5 -15 11 -15 5 0 7 5 4 10 -3 6 -2
10 3 10 5 0 10 -11 10 -25 -1 -14 -5 -22 -11 -18 -6 3 -7 1 -3 -5 3 -6 -1 -15
-10 -20 -15 -8 -15 -10 1 -16 10 -3 20 -4 23 -1 3 3 0 5 -7 5 -7 0 -9 4 -6 10
3 5 11 10 17 10 6 0 9 -3 5 -6 -3 -3 -2 -16 3 -29 6 -16 4 -29 -5 -41 -17 -22
-19 -44 -5 -44 5 0 6 7 3 17 -5 12 -3 14 7 8 9 -5 11 -4 6 3 -4 7 -2 12 4 12
7 0 10 -7 7 -15 -4 -8 -1 -17 4 -21 6 -4 -1 -14 -17 -25 -25 -16 -26 -18 -7
-16 12 0 19 5 17 9 -3 4 -1 8 4 8 12 0 22 -25 22 -53 -1 -22 -1 -22 -18 -2
-16 19 -18 20 -34 3 -10 -10 -24 -15 -33 -12 -8 4 -15 1 -15 -4 0 -6 -7 -18
-16 -26 -15 -16 -17 -43 -11 -141 2 -27 -2 -56 -8 -64 -7 -11 -7 -13 3 -7 8 5
12 0 12 -13 0 -12 -6 -21 -12 -21 -10 0 -10 -2 0 -8 8 -6 14 -48 17 -128 3
-65 7 -134 10 -153 17 -129 8 -191 -36 -246 -13 -16 -51 -104 -55 -125 0 -3
-6 -25 -14 -50 -18 -59 -16 -52 -35 -149 -9 -46 -14 -85 -11 -88 10 -10 271
-13 1156 -12 1148 0 1158 0 1131 33 -6 7 -9 15 -6 18 3 2 -2 38 -11 79 -9 41
-17 79 -18 84 -1 6 -5 16 -9 23 -5 6 -6 12 -3 12 12 0 -30 111 -64 170 -28 49
-37 74 -35 100 2 19 6 80 9 135 3 55 9 138 13 185 3 47 7 114 7 150 1 44 6 69
16 78 8 8 9 11 3 7 -9 -4 -13 4 -13 30 0 26 4 34 13 30 6 -4 3 1 -7 9 -20 16
-20 16 0 16 10 0 15 4 9 8 -6 4 -16 19 -24 33 -13 27 -62 46 -84 32 -6 -4 -7
-1 -2 7 5 9 2 10 -14 5 -12 -4 -21 -2 -21 4 0 6 5 11 12 11 6 0 8 3 4 7 -3 4
4 13 16 20 l23 14 -25 -7 c-22 -6 -23 -5 -12 9 8 9 11 21 7 27 -3 5 -2 10 4
10 5 0 14 -8 20 -17 5 -10 12 -15 15 -12 3 3 -2 14 -12 25 -15 16 -17 24 -8
49 6 16 16 33 21 38 6 4 5 10 -4 16 -9 6 -10 11 -2 15 6 4 9 20 7 36 -2 16 2
31 8 34 8 3 7 7 -2 14 -9 6 -6 11 13 20 14 6 25 16 25 22 0 7 -7 4 -16 -4 -20
-20 -34 -20 -34 -1 0 25 -1 29 -12 43 -6 6 -7 12 -2 12 5 0 -4 9 -21 20 -16
11 -38 17 -47 14 -10 -3 -18 0 -18 6 0 6 4 8 10 5 6 -3 7 1 4 9 -4 11 0 16 11
16 9 0 14 -4 10 -9 -3 -6 4 -15 15 -21 13 -7 20 -7 20 0 0 5 9 19 20 30 16 16
17 20 4 20 -8 0 -13 4 -10 9 10 16 -28 23 -39 7 -10 -13 -13 -12 -23 4 -9 16
-8 19 6 19 9 1 24 1 32 2 8 1 22 -1 30 -3 8 -3 11 -3 7 0 -4 2 -2 11 4 19 11
12 14 10 24 -14 9 -23 12 -25 18 -10 4 11 3 16 -3 12 -6 -3 -10 0 -10 8 0 8
-9 22 -20 32 -11 10 -20 13 -20 7 0 -7 5 -12 11 -12 6 0 4 -7 -5 -15 -20 -20
-22 -19 -21 9 0 13 9 34 20 47 11 12 14 19 8 15 -7 -4 -13 -3 -13 2 0 16 13
22 27 11 9 -9 13 -8 13 0 0 6 -5 11 -11 11 -5 0 -7 5 -3 12 4 6 -4 3 -18 -8
-21 -15 -24 -22 -15 -33 10 -11 7 -13 -13 -8 -14 4 -19 4 -12 1 6 -3 12 -10
12 -15 0 -6 -5 -7 -11 -4 -6 4 -9 0 -7 -10 2 -10 -2 -20 -8 -22 -7 -2 -11 9
-10 28 1 18 7 34 14 37 10 3 10 7 1 18 -6 8 -16 11 -23 7 -7 -4 -7 -1 1 7 10
11 15 11 27 1 13 -11 21 -9 48 14 30 25 33 26 45 9 7 -10 10 -20 7 -23 -3 -3
-9 1 -14 9 -6 9 -10 10 -10 3 0 -15 17 -26 30 -18 11 7 -3 39 -26 62 -17 18
-29 16 -15 -1 9 -11 7 -14 -11 -13 -13 0 -31 -3 -40 -7 -11 -5 -18 -4 -18 3 0
6 7 11 15 11 8 0 15 4 15 10 0 5 -6 7 -13 4 -8 -3 -20 3 -28 12 -12 16 -12 17
5 11 22 -9 46 9 45 32 0 11 -3 10 -11 -6 -13 -27 -21 -28 -38 -8 -11 13 -8 21
19 47 17 17 29 33 26 36 -3 3 -12 -4 -21 -16 -8 -12 -20 -22 -26 -22 -7 0 -6
6 2 15 9 10 9 15 1 15 -6 0 -11 -5 -11 -11 0 -5 -6 -7 -12 -3 -10 6 -10 4 0
-7 6 -7 12 -18 12 -23 -1 -6 -9 -1 -20 12 -24 29 -9 52 30 46 14 -3 20 -1 15
3 -6 5 -23 26 -40 48 -33 45 -65 75 -80 74 -5 0 -4 -3 3 -6 14 -5 17 -23 4
-23 -5 0 -14 11 -20 25 -10 21 -9 27 3 31 8 4 13 10 10 14 -3 5 7 18 22 29
l28 21 -27 -11 c-16 -7 -28 -15 -28 -18 0 -3 -4 -12 -9 -20 -7 -11 -12 -10
-28 6 -16 16 -18 23 -8 36 7 9 15 14 18 10 4 -3 7 -1 7 5 0 17 -20 15 -26 -3
-4 -8 -14 -15 -23 -15 -14 0 -14 2 -1 10 10 6 11 10 3 10 -7 0 -13 9 -13 20 0
11 4 20 10 20 5 0 7 -7 4 -15 -4 -8 -1 -15 6 -15 6 0 9 4 5 9 -3 5 -1 12 5 16
16 10 12 24 -12 35 -22 11 -22 10 -4 -4 21 -17 19 -30 -2 -17 -7 4 -14 17 -17
29 -2 12 -7 27 -11 33 -3 6 3 17 15 25 12 8 21 21 20 27 0 9 -2 8 -6 -1 -2 -7
-13 -17 -23 -22 -25 -13 -55 31 -40 59 7 14 7 22 -2 27 -6 4 -8 3 -5 -2 3 -6
2 -16 -3 -24 -7 -11 -21 -5 -68 28 -33 23 -62 39 -66 35 -3 -3 -6 -1 -6 5 0 6
-6 9 -14 6 -8 -3 -17 -1 -21 5 -3 6 -26 20 -51 31 -24 11 -44 23 -44 26 0 3 5
2 12 -2 7 -5 8 -3 4 5 -5 7 -14 10 -22 7 -7 -3 -20 1 -28 9 -8 8 -21 15 -28
15 -20 0 -68 23 -68 33 0 5 -4 6 -9 2 -5 -3 -12 -1 -16 5 -4 6 -11 8 -16 5
-11 -8 -43 15 -47 34 -1 7 2 18 7 25 7 8 5 12 -8 12 -15 0 -17 -5 -11 -21 5
-12 4 -28 -1 -36 -8 -13 -13 -5 -10 15 1 5 -5 4 -13 -3 -20 -17 -38 -4 -31 22
5 19 4 19 -9 -3 -11 -19 -16 -22 -20 -10 -6 14 -36 20 -121 23 -16 1 -36 8
-43 17 -11 13 -11 13 -6 -2 5 -14 1 -16 -20 -12 -14 2 -36 8 -48 13 -13 4 -31
7 -40 6 -10 -2 -18 2 -18 8 0 7 -4 7 -9 -2 -5 -8 -16 -11 -25 -8 -9 4 -16 3
-16 -2 0 -15 -36 -19 -55 -5 -10 7 -22 11 -26 8 -5 -3 -9 -1 -9 4 0 16 -25 21
-46 9z m-364 -532 c0 -8 -7 -15 -15 -15 -16 0 -20 12 -8 23 11 12 23 8 23 -8z
m-29 -96 c-13 -11 -27 -17 -30 -13 -7 7 28 34 43 34 6 -1 0 -10 -13 -21z
m1647 -21 c7 -7 12 -16 12 -22 0 -6 -5 -5 -12 2 -7 7 -17 12 -22 12 -6 0 -3
-7 7 -15 11 -7 25 -11 33 -8 17 6 19 -13 2 -21 -7 -3 -4 -4 6 -3 10 1 21 -4
24 -12 2 -8 0 -11 -6 -8 -5 4 -15 0 -22 -9 -7 -8 -19 -13 -27 -10 -7 3 -13 1
-13 -4 0 -6 7 -10 15 -10 8 0 15 -4 15 -9 0 -5 7 -17 16 -26 19 -18 29 -75 14
-75 -6 0 -10 4 -10 8 0 4 -10 9 -22 9 -16 2 -19 0 -9 -6 9 -6 10 -11 2 -15
-15 -10 -14 -39 2 -33 6 2 12 11 11 19 -1 10 8 15 26 15 19 0 27 -5 26 -16 -1
-16 14 -18 49 -6 17 6 17 4 -4 -14 -17 -15 -27 -18 -36 -11 -15 13 -45 3 -46
-16 -3 -28 -4 -32 -11 -40 -5 -4 -8 -2 -8 5 0 7 -5 9 -11 5 -8 -4 -7 -9 2 -15
8 -5 9 -9 4 -9 -6 0 -11 -11 -11 -25 0 -14 4 -25 9 -25 4 0 5 -6 0 -12 -4 -7
-8 -17 -8 -22 0 -5 -5 -11 -10 -13 -6 -2 -11 5 -11 16 0 11 4 17 8 15 4 -3 8
0 8 5 0 6 -4 11 -9 11 -7 0 -8 82 -1 100 1 3 1 10 0 15 -7 31 -6 54 1 49 5 -3
9 -1 9 5 0 5 -5 13 -10 16 -18 11 -1 24 25 19 13 -2 26 0 30 6 3 5 0 8 -7 7
-7 -2 -10 -2 -5 0 4 3 4 9 1 14 -3 6 -11 3 -19 -7 -11 -16 -13 -16 -25 5 -6
13 -8 21 -3 18 5 -3 15 -2 23 4 13 7 12 9 -1 9 -20 0 -27 15 -25 50 1 15 7 24
15 22 7 -1 10 2 6 8 -3 6 -10 8 -15 5 -4 -3 -10 5 -13 17 -10 35 8 49 31 26z
m-1634 -54 c3 -8 2 -13 -3 -10 -4 3 -18 -5 -29 -17 l-22 -23 23 -1 c17 -2 19
0 7 7 -20 13 -4 13 20 0 16 -9 18 -17 13 -53 -3 -23 -6 -72 -7 -109 0 -44 -5
-69 -13 -72 -7 -3 -10 1 -7 12 2 9 -1 7 -7 -5 -7 -13 -16 -23 -22 -23 -5 0 -4
7 4 16 7 9 9 18 3 22 -5 4 -10 14 -12 22 -2 11 1 10 12 -3 9 -12 16 -14 21 -8
3 6 2 11 -2 11 -5 0 -9 9 -10 20 -1 11 3 19 9 17 6 -1 12 6 13 16 3 15 1 16
-11 6 -19 -16 -18 -4 4 28 13 21 14 25 2 18 -13 -7 -13 -6 -2 7 8 10 9 18 3
22 -6 4 -8 12 -5 20 5 12 0 14 -46 18 -11 1 -20 4 -20 5 0 7 41 43 49 43 5 0
11 7 15 15 7 19 12 19 20 -1z m-45 -108 c9 -11 8 -15 -5 -20 -12 -5 -15 -2
-10 10 4 12 0 10 -20 -5 -25 -20 -44 -20 -44 -1 0 5 6 7 13 4 8 -3 20 2 27 11
15 19 24 19 39 1z m18 -39 c-2 -6 -10 -12 -18 -15 -11 -3 -11 -1 1 8 12 9 12
11 1 8 -20 -6 -23 -39 -6 -58 12 -14 12 -16 -5 -16 -10 0 -16 5 -13 10 3 5 1
6 -6 2 -6 -4 -9 -11 -6 -16 3 -4 -1 -11 -7 -14 -7 -3 -2 -3 11 0 15 4 21 2 17
-4 -3 -6 -2 -13 4 -17 13 -8 3 -25 -13 -25 -8 0 -8 3 1 9 11 7 10 9 -3 14 -9
4 -13 3 -10 -3 3 -6 1 -10 -4 -10 -6 0 -11 5 -11 12 0 9 -3 9 -12 0 -15 -15
-28 -15 -28 -1 0 5 4 7 10 4 5 -3 15 5 21 19 10 22 9 28 -12 45 -13 11 -19 20
-13 21 6 0 17 -7 24 -15 16 -20 30 -10 28 20 -1 13 -6 21 -11 18 -4 -2 -5 -14
-1 -26 6 -21 6 -21 -12 -4 -18 17 -18 19 -2 31 22 16 81 19 75 3z m-12 -37 c3
-5 1 -10 -4 -10 -6 0 -11 5 -11 10 0 6 2 10 4 10 3 0 8 -4 11 -10z m1725 -75
c-7 -8 -9 -15 -5 -15 4 0 -3 -8 -15 -18 -18 -14 -19 -19 -7 -19 9 0 13 5 10
11 -4 6 -2 7 3 3 9 -8 10 -12 13 -39 1 -7 9 -4 21 7 11 10 20 13 20 7 0 -22
-34 -31 -53 -14 -17 15 -17 15 -11 -1 3 -10 1 -17 -5 -17 -6 0 -2 -9 9 -20
l20 -20 -20 -20 c-11 -11 -20 -26 -20 -34 0 -8 -5 -18 -11 -21 -13 -9 -8 27 6
38 6 5 0 6 -11 2 -15 -4 -24 0 -28 12 -4 10 -4 14 0 10 7 -6 39 30 39 45 0 3
3 10 7 13 4 4 3 16 -2 25 -7 13 -4 25 11 44 11 14 17 26 12 26 -4 0 -1 4 7 10
20 12 26 4 10 -15z m-1730 -38 c8 0 23 3 33 8 13 5 17 2 17 -14 0 -12 -4 -21
-10 -21 -5 0 -7 8 -4 18 5 14 4 15 -5 2 -6 -8 -11 -11 -11 -5 0 17 -20 -11
-25 -35 -2 -12 -1 -19 3 -16 7 7 8 11 11 37 0 5 6 7 11 4 6 -4 8 -11 5 -16 -4
-5 -1 -17 5 -26 9 -16 10 -15 5 5 -4 14 -2 22 6 22 7 0 9 -3 6 -7 -4 -3 -2
-12 4 -20 9 -9 8 -13 0 -14 -6 -1 -15 -3 -21 -4 -5 -1 -12 -3 -15 -4 -3 0 2
-16 10 -33 14 -29 14 -31 0 -14 -8 11 -15 23 -15 28 0 4 -5 8 -11 8 -5 0 -8
-4 -5 -9 3 -5 -2 -8 -12 -7 -10 0 -16 -5 -14 -14 3 -12 0 -12 -13 1 -12 12
-14 22 -8 34 12 20 23 21 34 3 7 -10 9 -10 9 3 0 8 -5 20 -11 26 -8 8 -8 13 0
17 6 4 11 12 11 17 0 6 -4 8 -9 4 -5 -3 -12 -1 -16 5 -4 6 -11 8 -16 5 -5 -4
-9 -2 -9 3 0 15 13 23 29 16 9 -4 23 -7 31 -7z m1774 -92 c7 -20 -3 -45 -19
-45 -10 0 -12 16 -6 53 2 13 19 8 25 -8z m-110 -61 c-7 -3 -10 -15 -8 -27 4
-21 4 -21 -5 -2 -10 23 -5 35 12 34 9 0 9 -2 1 -5z"/>
<path d="M2626 2328 c3 -4 11 -5 19 -1 21 7 19 12 -4 10 -11 0 -18 -5 -15 -9z"/>
<path d="M2645 2140 c-12 -5 -14 -9 -6 -9 11 -1 10 -5 -5 -17 -18 -15 -18 -15
2 -5 12 6 24 17 28 26 3 8 4 15 3 14 -1 0 -11 -4 -22 -9z"/>
<path d="M2643 1964 c4 -4 -1 -13 -11 -20 -15 -12 -15 -12 6 -7 29 7 36 19 15
27 -10 4 -14 4 -10 0z"/>
<path d="M1729 3053 c-13 -16 -12 -17 4 -4 9 7 17 15 17 17 0 8 -8 3 -21 -13z"/>
<path d="M1857 3060 c7 -8 20 -15 29 -16 9 -1 13 1 9 4 -4 4 -10 7 -13 7 -4 0
-14 4 -22 9 -12 7 -13 6 -3 -4z"/>
<path d="M1760 3056 c0 -2 8 -10 18 -17 15 -13 16 -12 3 4 -13 16 -21 21 -21
13z"/>
<path d="M2120 3056 c0 -2 8 -10 18 -17 15 -13 16 -12 3 4 -13 16 -21 21 -21
13z"/>
<path d="M2225 3050 c-3 -6 1 -7 9 -4 18 7 21 14 7 14 -6 0 -13 -4 -16 -10z"/>
<path d="M1175 3041 c-3 -5 -2 -12 3 -15 5 -3 9 1 9 9 0 17 -3 19 -12 6z"/>
<path d="M2041 3026 c-7 -8 -22 -13 -33 -11 -11 3 -18 1 -14 -2 14 -14 35 -10
52 8 9 10 15 19 12 19 -3 0 -11 -6 -17 -14z"/>
<path d="M2100 3036 c0 -2 8 -10 18 -17 15 -13 16 -12 3 4 -13 16 -21 21 -21
13z"/>
<path d="M2195 3031 c-3 -5 -2 -12 3 -15 5 -3 9 1 9 9 0 17 -3 19 -12 6z"/>
<path d="M2370 3029 c0 -5 5 -7 10 -4 6 3 10 8 10 11 0 2 -4 4 -10 4 -5 0 -10
-5 -10 -11z"/>
<path d="M2415 3031 c-3 -5 -2 -12 3 -15 5 -3 9 1 9 9 0 17 -3 19 -12 6z"/>
<path d="M2070 3011 c0 -6 4 -12 8 -15 5 -3 9 1 9 9 0 8 -4 15 -9 15 -4 0 -8
-4 -8 -9z"/>
<path d="M2280 3010 c-9 -6 -10 -10 -3 -10 6 0 15 5 18 10 8 12 4 12 -15 0z"/>
<path d="M2229 2993 c-13 -16 -12 -17 4 -4 9 7 17 15 17 17 0 8 -8 3 -21 -13z"/>
<path d="M2036 2992 c-3 -5 3 -16 14 -25 17 -14 19 -14 17 3 -1 11 -6 16 -16
12 -9 -3 -12 -1 -7 6 4 7 5 12 2 12 -3 0 -7 -4 -10 -8z"/>
<path d="M2147 2989 c7 -9 9 -19 5 -24 -4 -4 3 -2 16 4 12 6 22 14 22 17 0 3
-5 2 -10 -1 -6 -4 -19 -1 -28 7 -15 11 -15 11 -5 -3z"/>
<path d="M995 2979 c-4 -6 -5 -12 -2 -15 2 -3 7 2 10 11 7 17 1 20 -8 4z"/>
<path d="M2253 2965 c0 -8 4 -12 9 -9 4 3 8 9 8 15 0 5 -4 9 -8 9 -5 0 -9 -7
-9 -15z"/>
<path d="M2333 2963 c0 -9 4 -10 14 -2 7 6 13 12 13 14 0 1 -6 2 -13 2 -8 0
-14 -6 -14 -14z"/>
<path d="M2375 2971 c-3 -5 -2 -12 3 -15 5 -3 9 1 9 9 0 17 -3 19 -12 6z"/>
<path d="M2490 2969 c0 -5 5 -7 10 -4 6 3 10 8 10 11 0 2 -4 4 -10 4 -5 0 -10
-5 -10 -11z"/>
<path d="M1050 2949 c0 -5 5 -7 10 -4 6 3 10 8 10 11 0 2 -4 4 -10 4 -5 0 -10
-5 -10 -11z"/>
<path d="M2110 2951 c0 -6 4 -13 10 -16 6 -3 7 1 4 9 -7 18 -14 21 -14 7z"/>
<path d="M990 2946 c0 -2 8 -10 18 -17 15 -13 16 -12 3 4 -13 16 -21 21 -21
13z"/>
<path d="M2202 2930 c-7 -11 -8 -20 -3 -20 9 0 24 30 18 36 -1 2 -8 -6 -15
-16z"/>
<path d="M2250 2928 c0 -4 4 -8 9 -8 6 0 12 4 15 8 3 5 -1 9 -9 9 -8 0 -15 -4
-15 -9z"/>
<path d="M2333 2923 c0 -9 4 -10 12 -3 7 5 15 7 18 3 4 -3 7 -1 7 5 0 6 -8 10
-18 9 -10 0 -19 -7 -19 -14z"/>
<path d="M2155 2920 c3 -5 8 -10 11 -10 2 0 4 5 4 10 0 6 -5 10 -11 10 -5 0
-7 -4 -4 -10z"/>
<path d="M2431 2917 c-8 -10 -7 -14 2 -14 8 0 14 6 14 14 0 7 -1 13 -2 13 -2
0 -8 -6 -14 -13z"/>
<path d="M2290 2900 c-11 -7 -11 -10 -2 -10 7 0 11 -4 7 -9 -3 -5 0 -13 7 -17
7 -4 10 -4 6 1 -4 4 0 14 10 22 16 12 16 13 -2 6 -13 -4 -17 -3 -12 5 9 14 6
15 -14 2z"/>
<path d="M2365 2890 c-10 -11 -16 -22 -14 -24 2 -2 12 7 22 20 22 29 17 32 -8
4z"/>
<path d="M956 2888 c3 -5 10 -6 15 -3 13 9 11 12 -6 12 -8 0 -12 -4 -9 -9z"/>
<path d="M2210 2890 c0 -5 5 -10 10 -10 6 0 10 5 10 10 0 6 -4 10 -10 10 -5 0
-10 -4 -10 -10z"/>
<path d="M2430 2865 c5 -7 6 -16 2 -20 -4 -5 -1 -5 6 -1 7 4 12 2 12 -5 0 -7
3 -9 6 -6 4 4 2 13 -4 20 -7 8 -10 16 -7 19 3 2 -2 5 -10 5 -10 0 -12 -4 -5
-12z"/>
<path d="M2464 2872 c4 -3 14 -7 22 -8 9 -1 13 0 10 4 -4 3 -14 7 -22 8 -9 1
-13 0 -10 -4z"/>
<path d="M2610 2869 c0 -5 5 -7 10 -4 6 3 10 8 10 11 0 2 -4 4 -10 4 -5 0 -10
-5 -10 -11z"/>
<path d="M950 2866 c0 -2 8 -10 18 -17 15 -13 16 -12 3 4 -13 16 -21 21 -21
13z"/>
<path d="M2377 2859 c7 -7 15 -10 18 -7 3 3 -2 9 -12 12 -14 6 -15 5 -6 -5z"/>
<path d="M2655 2861 c-3 -5 -2 -12 3 -15 5 -3 9 1 9 9 0 17 -3 19 -12 6z"/>
<path d="M1040 2855 c0 -2 6 -8 13 -14 10 -8 14 -7 14 2 0 8 -6 14 -14 14 -7
0 -13 -1 -13 -2z"/>
<path d="M2278 2853 c6 -2 9 -10 6 -15 -4 -7 -2 -8 5 -4 13 9 5 26 -12 25 -9
0 -8 -2 1 -6z"/>
<path d="M2310 2840 c0 -5 5 -10 10 -10 6 0 10 5 10 10 0 6 -4 10 -10 10 -5 0
-10 -4 -10 -10z"/>
<path d="M2350 2840 c0 -5 5 -10 11 -10 5 0 7 5 4 10 -3 6 -8 10 -11 10 -2 0
-4 -4 -4 -10z"/>
<path d="M2510 2846 c0 -2 8 -10 18 -17 15 -13 16 -12 3 4 -13 16 -21 21 -21
13z"/>
<path d="M2550 2826 c0 -2 8 -10 18 -17 15 -13 16 -12 3 4 -13 16 -21 21 -21
13z"/>
<path d="M676 2812 c-3 -5 1 -9 9 -9 8 0 12 4 9 9 -3 4 -7 8 -9 8 -2 0 -6 -4
-9 -8z"/>
<path d="M2365 2810 c-3 -6 1 -7 9 -4 18 7 21 14 7 14 -6 0 -13 -4 -16 -10z"/>
<path d="M2451 2804 c0 -11 3 -14 6 -6 3 7 2 16 -1 19 -3 4 -6 -2 -5 -13z"/>
<path d="M856 2792 c-3 -5 1 -9 9 -9 8 0 12 4 9 9 -3 4 -7 8 -9 8 -2 0 -6 -4
-9 -8z"/>
<path d="M895 2790 c3 -5 8 -10 11 -10 2 0 4 5 4 10 0 6 -5 10 -11 10 -5 0 -7
-4 -4 -10z"/>
<path d="M2625 2790 c-3 -6 1 -7 9 -4 18 7 21 14 7 14 -6 0 -13 -4 -16 -10z"/>
<path d="M2526 2771 c-13 -14 -14 -21 -5 -27 8 -5 10 -3 4 6 -6 9 -4 12 6 8
10 -4 15 1 15 13 0 23 1 23 -20 0z"/>
<path d="M2573 2777 c0 -8 6 -14 14 -14 9 0 10 4 2 14 -6 7 -12 13 -14 13 -1
0 -2 -6 -2 -13z"/>
<path d="M976 2768 c3 -4 11 -5 19 -1 21 7 19 12 -4 10 -11 0 -18 -5 -15 -9z"/>
<path d="M2405 2770 c3 -5 11 -10 16 -10 6 0 7 5 4 10 -3 6 -11 10 -16 10 -6
0 -7 -4 -4 -10z"/>
<path d="M2760 2770 c-8 -5 -10 -10 -5 -10 6 0 17 5 25 10 8 5 11 10 5 10 -5
0 -17 -5 -25 -10z"/>
<path d="M1004 2745 c-4 -11 -10 -12 -18 -6 -8 7 -12 4 -13 -12 0 -12 1 -16 4
-9 4 10 8 10 21 0 10 -7 14 -9 10 -4 -4 5 -3 17 3 27 5 11 7 19 4 19 -3 0 -8
-7 -11 -15z"/>
<path d="M2475 2750 c-3 -6 1 -7 9 -4 18 7 21 14 7 14 -6 0 -13 -4 -16 -10z"/>
<path d="M2599 2743 c-13 -16 -12 -17 4 -4 16 13 21 21 13 21 -2 0 -10 -8 -17
-17z"/>
<path d="M2630 2756 c0 -2 7 -7 16 -10 8 -3 12 -2 9 4 -6 10 -25 14 -25 6z"/>
<path d="M2570 2740 c0 -5 -5 -9 -11 -7 -6 1 -14 -5 -16 -13 -4 -12 -3 -12 5
-2 5 8 13 13 18 12 5 -1 10 3 12 9 2 6 1 11 -2 11 -3 0 -6 -4 -6 -10z"/>
<path d="M2490 2730 c0 -5 5 -10 10 -10 6 0 10 5 10 10 0 6 -4 10 -10 10 -5 0
-10 -4 -10 -10z"/>
<path d="M750 2710 c0 -5 5 -10 11 -10 5 0 7 5 4 10 -3 6 -8 10 -11 10 -2 0
-4 -4 -4 -10z"/>
<path d="M906 2712 c-2 -4 4 -8 14 -8 10 0 16 4 14 8 -3 4 -9 8 -14 8 -5 0
-11 -4 -14 -8z"/>
<path d="M2625 2710 c-3 -6 1 -7 9 -4 18 7 21 14 7 14 -6 0 -13 -4 -16 -10z"/>
<path d="M2660 2715 c0 -2 6 -8 13 -14 10 -8 14 -7 14 2 0 8 -6 14 -14 14 -7
0 -13 -1 -13 -2z"/>
<path d="M2770 2710 c0 -5 5 -10 11 -10 5 0 7 5 4 10 -3 6 -8 10 -11 10 -2 0
-4 -4 -4 -10z"/>
<path d="M2816 2708 c3 -5 10 -6 15 -3 13 9 11 12 -6 12 -8 0 -12 -4 -9 -9z"/>
<path d="M1010 2696 c0 -2 7 -7 16 -10 8 -3 12 -2 9 4 -6 10 -25 14 -25 6z"/>
<path d="M2540 2687 c0 -9 -6 -16 -12 -14 -7 1 -13 -4 -13 -12 0 -8 6 -15 13
-17 7 -1 8 0 2 3 -5 2 -10 9 -10 14 0 6 5 7 10 4 11 -7 26 22 16 32 -3 4 -6
-1 -6 -10z"/>
<path d="M2580 2688 c0 -4 4 -8 9 -8 6 0 12 4 15 8 3 5 -1 9 -9 9 -8 0 -15 -4
-15 -9z"/>
<path d="M2634 2688 c-4 -7 -4 -10 1 -6 4 4 15 2 24 -5 14 -11 14 -10 2 6 -16
20 -18 21 -27 5z"/>
<path d="M917 2656 c10 -12 18 -22 19 -24 1 -1 4 6 7 17 3 15 1 18 -11 14 -9
-4 -13 -2 -9 4 3 5 0 10 -8 10 -12 0 -12 -4 2 -21z"/>
<path d="M1000 2658 c-10 -21 -10 -21 3 -6 8 10 18 14 22 10 5 -4 5 -1 1 6
-10 17 -14 15 -26 -10z"/>
<path d="M2605 2670 c-7 -12 2 -30 16 -30 5 0 9 5 9 11 0 5 -5 7 -12 3 -8 -5
-9 -2 -5 9 7 19 2 23 -8 7z"/>
<path d="M2676 2663 c-4 -9 -3 -20 1 -24 4 -4 9 3 9 17 2 28 -1 31 -10 7z"/>
<path d="M2815 2670 c-3 -5 -1 -10 4 -10 6 0 11 5 11 10 0 6 -2 10 -4 10 -3 0
-8 -4 -11 -10z"/>
<path d="M875 2661 c-3 -6 5 -15 17 -21 21 -10 21 -10 6 3 -10 8 -15 17 -11
20 3 4 4 7 0 7 -3 0 -8 -4 -12 -9z"/>
<path d="M2553 2638 c-2 -18 0 -20 7 -8 12 18 13 30 2 30 -4 0 -9 -10 -9 -22z"/>
<path d="M2573 2624 c-3 -8 -2 -22 2 -31 16 -36 14 -52 -5 -66 -11 -8 -17 -17
-13 -20 3 -4 12 2 20 13 8 11 20 20 28 20 19 0 28 17 14 26 -8 5 -9 3 -4 -6 5
-8 3 -11 -6 -8 -17 6 -19 28 -5 48 10 13 9 13 -6 1 -16 -12 -18 -11 -18 7 0
15 5 19 20 15 11 -3 20 -3 20 0 0 13 -42 14 -47 1z"/>
<path d="M868 2623 c6 -2 9 -10 6 -15 -4 -7 -2 -8 5 -4 13 9 5 26 -12 25 -9 0
-8 -2 1 -6z"/>
<path d="M957 2619 c7 -7 15 -10 18 -7 3 3 -2 9 -12 12 -14 6 -15 5 -6 -5z"/>
<path d="M2643 2620 c-13 -5 -23 -11 -23 -14 0 -7 40 6 46 15 6 10 6 10 -23
-1z"/>
<path d="M746 2612 c-2 -4 4 -8 14 -8 10 0 16 4 14 8 -3 4 -9 8 -14 8 -5 0
-11 -4 -14 -8z"/>
<path d="M2677 2613 c-10 -9 -9 -23 1 -23 5 0 9 7 9 15 0 17 -1 18 -10 8z"/>
<path d="M2790 2616 c0 -2 7 -7 16 -10 8 -3 12 -2 9 4 -6 10 -25 14 -25 6z"/>
<path d="M2830 2616 c0 -2 7 -7 16 -10 8 -3 12 -2 9 4 -6 10 -25 14 -25 6z"/>
<path d="M930 2590 c-9 -6 -10 -10 -3 -10 6 0 15 5 18 10 8 12 4 12 -15 0z"/>
<path d="M2740 2596 c0 -2 8 -10 18 -17 15 -13 16 -12 3 4 -13 16 -21 21 -21
13z"/>
<path d="M774 2579 c-3 -6 -2 -15 3 -20 5 -5 9 -1 9 11 0 23 -2 24 -12 9z"/>
<path d="M856 2577 c3 -10 9 -15 12 -12 3 3 0 11 -7 18 -10 9 -11 8 -5 -6z"/>
<path d="M2630 2580 c0 -5 5 -10 11 -10 5 0 7 5 4 10 -3 6 -8 10 -11 10 -2 0
-4 -4 -4 -10z"/>
<path d="M736 2572 c-3 -5 1 -9 9 -9 8 0 12 4 9 9 -3 4 -7 8 -9 8 -2 0 -6 -4
-9 -8z"/>
<path d="M890 2572 c0 -5 7 -9 15 -9 8 0 12 4 9 9 -3 4 -9 8 -15 8 -5 0 -9 -4
-9 -8z"/>
<path d="M952 2568 c2 -6 10 -13 16 -14 7 -1 8 0 2 3 -5 2 -8 9 -4 14 3 5 0 9
-6 9 -7 0 -10 -5 -8 -12z"/>
<path d="M830 2566 c0 -2 8 -10 18 -17 15 -13 16 -12 3 4 -13 16 -21 21 -21
13z"/>
<path d="M695 2550 c-3 -5 -1 -10 4 -10 6 0 11 5 11 10 0 6 -2 10 -4 10 -3 0
-8 -4 -11 -10z"/>
<path d="M925 2549 c-4 -6 -4 -13 -1 -16 3 -4 6 -1 6 6 0 7 5 9 12 5 7 -4 8
-3 4 4 -9 15 -13 15 -21 1z"/>
<path d="M2645 2553 c15 -12 18 -44 3 -41 -7 2 -14 -8 -15 -22 -2 -24 -2 -24
5 -2 4 13 12 23 17 23 16 -1 11 42 -5 46 -9 3 -11 1 -5 -4z"/>
<path d="M2685 2550 c-3 -5 -2 -17 3 -26 8 -15 10 -15 15 0 5 12 3 15 -5 10
-8 -5 -9 -2 -5 9 7 19 2 23 -8 7z"/>
<path d="M2750 2551 c0 -6 4 -12 8 -15 5 -3 9 1 9 9 0 8 -4 15 -9 15 -4 0 -8
-4 -8 -9z"/>
<path d="M2786 2548 c3 -4 9 -8 15 -8 5 0 9 4 9 8 0 5 -7 9 -15 9 -8 0 -12 -4
-9 -9z"/>
<path d="M2915 2550 c-3 -5 -1 -10 4 -10 6 0 11 5 11 10 0 6 -2 10 -4 10 -3 0
-8 -4 -11 -10z"/>
<path d="M814 2531 c0 -13 6 -17 19 -13 10 2 16 5 15 6 -2 1 -10 7 -18 13 -13
10 -16 8 -16 -6z"/>
<path d="M872 2537 c-8 -10 -6 -13 7 -13 11 0 17 6 14 13 -3 7 -6 13 -8 13 -1
0 -7 -6 -13 -13z"/>
<path d="M753 2524 c0 -9 4 -11 12 -4 7 5 14 9 16 7 2 -1 3 0 1 2 -7 11 -29 7
-29 -5z"/>
<path d="M2819 2523 c-13 -17 -13 -17 6 -3 11 8 22 16 24 17 2 2 0 3 -6 3 -6
0 -17 -8 -24 -17z"/>
<path d="M940 2526 c0 -2 7 -7 16 -10 8 -3 12 -2 9 4 -6 10 -25 14 -25 6z"/>
<path d="M2717 2523 c-13 -12 -7 -23 11 -22 10 0 12 3 4 6 -6 2 -10 9 -6 14 6
10 0 12 -9 2z"/>
<path d="M695 2510 c-3 -5 -1 -10 4 -10 6 0 11 5 11 10 0 6 -2 10 -4 10 -3 0
-8 -4 -11 -10z"/>
<path d="M910 2510 c0 -5 5 -10 10 -10 6 0 10 5 10 10 0 6 -4 10 -10 10 -5 0
-10 -4 -10 -10z"/>
<path d="M774 2499 c-3 -6 -2 -15 3 -20 5 -5 9 -1 9 11 0 23 -2 24 -12 9z"/>
<path d="M874 2484 c0 -13 4 -24 9 -24 5 0 6 7 3 16 -5 12 -1 14 17 8 25 -7
22 -2 -8 14 -18 9 -21 8 -21 -14z"/>
<path d="M585 2490 c-3 -6 1 -7 9 -4 18 7 21 14 7 14 -6 0 -13 -4 -16 -10z"/>
<path d="M948 2493 c6 -2 18 -2 25 0 6 3 1 5 -13 5 -14 0 -19 -2 -12 -5z"/>
<path d="M2661 2484 c-7 -8 -11 -17 -8 -20 2 -2 10 2 17 11 11 13 14 13 24 1
8 -10 17 -11 31 -5 19 9 19 9 -2 5 -12 -2 -24 2 -27 10 -7 18 -17 17 -35 -2z"/>
<path d="M2753 2485 c0 -8 4 -12 9 -9 4 3 8 9 8 15 0 5 -4 9 -8 9 -5 0 -9 -7
-9 -15z"/>
<path d="M715 2471 c-3 -5 -2 -12 3 -15 5 -3 9 1 9 9 0 17 -3 19 -12 6z"/>
<path d="M753 2464 c16 -20 52 -30 41 -12 -4 5 -9 7 -12 4 -3 -3 -15 2 -26 11
-21 18 -21 18 -3 -3z"/>
<path d="M2790 2466 c7 -7 13 -7 20 0 6 6 3 10 -10 10 -13 0 -16 -4 -10 -10z"/>
<path d="M2833 2463 c0 -9 4 -10 14 -2 7 6 13 12 13 14 0 1 -6 2 -13 2 -8 0
-14 -6 -14 -14z"/>
<path d="M2935 2470 c3 -5 8 -10 11 -10 2 0 4 5 4 10 0 6 -5 10 -11 10 -5 0
-7 -4 -4 -10z"/>
<path d="M828 2463 c6 -2 10 -9 7 -14 -4 -5 1 -6 10 -2 13 5 14 7 3 14 -7 5
-17 8 -23 8 -5 0 -4 -3 3 -6z"/>
<path d="M2600 2463 c8 -3 23 -12 33 -21 9 -8 17 -12 17 -7 0 12 -33 34 -50
34 -13 -1 -13 -1 0 -6z"/>
<path d="M624 2452 c4 -3 14 -7 22 -8 9 -1 13 0 10 4 -4 3 -14 7 -22 8 -9 1
-13 0 -10 -4z"/>
<path d="M908 2453 c7 -3 16 -2 19 1 4 3 -2 6 -13 5 -11 0 -14 -3 -6 -6z"/>
<path d="M2677 2443 c4 -11 3 -14 -5 -9 -7 4 -12 2 -12 -4 0 -7 6 -10 13 -8
15 6 22 38 8 38 -6 0 -7 -7 -4 -17z"/>
<path d="M2736 2445 c4 -8 8 -15 10 -15 2 0 4 7 4 15 0 8 -4 15 -10 15 -5 0
-7 -7 -4 -15z"/>
<path d="M2775 2450 c3 -4 16 -10 30 -12 13 -3 22 -2 20 2 -3 4 -16 10 -30 12
-13 3 -22 2 -20 -2z"/>
<path d="M2880 2450 c-12 -7 -10 -9 7 -7 12 0 19 5 17 9 -6 10 -6 10 -24 -2z"/>
<path d="M2710 2441 c0 -5 5 -13 10 -16 6 -3 10 -2 10 4 0 5 -4 13 -10 16 -5
3 -10 2 -10 -4z"/>
<path d="M590 2429 c0 -5 5 -7 10 -4 6 3 10 8 10 11 0 2 -4 4 -10 4 -5 0 -10
-5 -10 -11z"/>
<path d="M856 2427 c3 -10 9 -15 12 -12 3 3 0 11 -7 18 -10 9 -11 8 -5 -6z"/>
<path d="M800 2421 c0 -6 4 -13 10 -16 6 -3 7 1 4 9 -7 18 -14 21 -14 7z"/>
<path d="M2858 2420 c13 -15 65 -23 57 -9 -3 4 -13 6 -23 4 -9 -1 -24 2 -32 8
-12 9 -13 9 -2 -3z"/>
<path d="M696 2403 c-6 -14 -5 -15 5 -6 7 7 10 15 7 18 -3 3 -9 -2 -12 -12z"/>
<path d="M726 2411 c-3 -4 6 -7 19 -7 14 0 22 2 19 5 -8 8 -34 10 -38 2z"/>
<path d="M836 2405 c-9 -26 -7 -32 5 -12 6 10 9 21 6 23 -2 3 -7 -2 -11 -11z"/>
<path d="M2680 2409 c-11 -8 -9 -9 10 -3 22 6 23 5 11 -10 -7 -9 -9 -16 -3
-16 12 0 23 26 15 34 -9 8 -16 7 -33 -5z"/>
<path d="M2735 2410 c-3 -5 -3 -10 2 -10 4 0 1 -5 -7 -11 -12 -8 -12 -10 -1
-7 8 2 15 12 17 21 3 19 -2 22 -11 7z"/>
<path d="M2760 2410 c0 -5 5 -10 11 -10 5 0 7 -5 3 -12 -4 -7 -3 -8 5 -4 9 6
9 11 0 22 -14 17 -19 18 -19 4z"/>
<path d="M2817 2406 c-4 -11 -1 -13 10 -9 10 4 14 2 10 -4 -3 -5 0 -10 8 -10
13 0 12 4 -2 19 -19 22 -19 22 -26 4z"/>
<path d="M566 2392 c-3 -5 1 -9 9 -9 8 0 12 4 9 9 -3 4 -7 8 -9 8 -2 0 -6 -4
-9 -8z"/>
<path d="M2970 2389 c0 -5 5 -7 10 -4 6 3 10 8 10 11 0 2 -4 4 -10 4 -5 0 -10
-5 -10 -11z"/>
<path d="M726 2375 c-11 -8 -15 -15 -9 -15 6 0 16 7 23 15 16 19 11 19 -14 0z"/>
<path d="M782 2377 c10 -8 15 -17 11 -20 -3 -4 -2 -7 4 -7 6 0 14 8 17 17 4
10 4 14 0 11 -4 -4 -16 -3 -28 3 -19 9 -19 9 -4 -4z"/>
<path d="M2914 2379 c-3 -6 -2 -15 3 -20 5 -5 9 -1 9 11 0 23 -2 24 -12 9z"/>
<path d="M2739 2369 c-12 -8 -12 -10 1 -8 30 3 41 -1 34 -13 -4 -7 -3 -8 4 -4
16 10 15 14 -6 25 -12 6 -23 6 -33 0z"/>
<path d="M2795 2370 c3 -5 8 -10 11 -10 2 0 4 5 4 10 0 6 -5 10 -11 10 -5 0
-7 -4 -4 -10z"/>
<path d="M3110 2371 c0 -6 4 -13 10 -16 6 -3 7 1 4 9 -7 18 -14 21 -14 7z"/>
<path d="M673 2357 c0 -8 6 -14 14 -14 9 0 10 4 2 14 -6 7 -12 13 -14 13 -1 0
-2 -6 -2 -13z"/>
<path d="M2876 2357 c3 -10 9 -15 12 -12 3 3 0 11 -7 18 -10 9 -11 8 -5 -6z"/>
<path d="M2710 2346 c0 -2 7 -7 16 -10 8 -3 12 -2 9 4 -6 10 -25 14 -25 6z"/>
<path d="M2750 2341 c0 -10 19 -25 25 -20 1 2 -3 10 -11 17 -8 7 -14 8 -14 3z"/>
<path d="M2812 2330 c0 -14 2 -19 5 -12 2 6 2 18 0 25 -3 6 -5 1 -5 -13z"/>
<path d="M590 2330 c0 -5 5 -10 10 -10 6 0 10 5 10 10 0 6 -4 10 -10 10 -5 0
-10 -4 -10 -10z"/>
<path d="M756 2325 c-11 -8 -15 -15 -9 -15 7 0 15 5 18 10 4 6 11 8 16 5 5 -4
9 -1 9 4 0 15 -11 13 -34 -4z"/>
<path d="M805 2330 c-3 -6 1 -7 9 -4 18 7 21 14 7 14 -6 0 -13 -4 -16 -10z"/>
<path d="M2905 2329 c-3 -4 2 -6 10 -5 21 3 28 13 10 13 -9 0 -18 -4 -20 -8z"/>
<path d="M850 2323 c-8 -2 -21 -7 -28 -9 -11 -3 -10 -12 6 -38 19 -32 19 -46
0 -46 -4 0 -7 6 -5 12 1 7 -9 13 -23 14 -22 2 -22 2 -2 -3 12 -2 20 -9 17 -14
-4 -5 1 -12 10 -16 28 -10 34 17 13 53 l-20 34 20 0 c12 0 24 5 27 10 3 6 5
10 3 9 -2 0 -10 -3 -18 -6z"/>
<path d="M673 2303 c0 -9 4 -10 14 -2 7 6 13 12 13 14 0 1 -6 2 -13 2 -8 0
-14 -6 -14 -14z"/>
<path d="M875 2310 c-8 -13 3 -30 18 -29 9 0 9 2 0 6 -7 2 -13 9 -13 14 0 6 5
7 10 4 6 -3 10 -1 10 4 0 14 -17 14 -25 1z"/>
<path d="M2833 2290 c0 -23 3 -28 9 -16 5 9 5 23 0 32 -6 12 -9 7 -9 -16z"/>
<path d="M2950 2309 c0 -5 5 -7 10 -4 6 3 10 8 10 11 0 2 -4 4 -10 4 -5 0 -10
-5 -10 -11z"/>
<path d="M3006 2312 c-3 -5 1 -9 9 -9 8 0 12 4 9 9 -3 4 -7 8 -9 8 -2 0 -6 -4
-9 -8z"/>
<path d="M2760 2300 c-9 -6 -10 -10 -3 -10 6 0 15 5 18 10 8 12 4 12 -15 0z"/>
<path d="M2914 2301 c4 -6 3 -18 -3 -25 -8 -9 -7 -13 2 -13 16 0 20 34 5 43
-7 4 -8 2 -4 -5z"/>
<path d="M699 2283 c-13 -17 -13 -17 6 -3 11 8 22 16 24 17 2 2 0 3 -6 3 -6 0
-17 -8 -24 -17z"/>
<path d="M536 2272 c-3 -5 1 -9 9 -9 8 0 12 4 9 9 -3 4 -7 8 -9 8 -2 0 -6 -4
-9 -8z"/>
<path d="M750 2270 c0 -5 5 -10 10 -10 6 0 10 5 10 10 0 6 -4 10 -10 10 -5 0
-10 -4 -10 -10z"/>
<path d="M2763 2259 c14 -10 29 -19 34 -19 4 0 0 5 -10 11 -9 6 -15 14 -13 18
3 4 -4 8 -15 8 -18 2 -18 0 4 -18z"/>
<path d="M2867 2263 c5 -12 3 -14 -7 -8 -9 5 -11 4 -6 -4 6 -9 11 -9 22 0 17
14 17 16 0 22 -11 4 -13 1 -9 -10z"/>
<path d="M2717 2263 c-4 -3 -7 -11 -7 -17 0 -6 5 -5 12 2 6 6 9 14 7 17 -3 3
-9 2 -12 -2z"/>
<path d="M713 2218 c-2 -18 0 -20 7 -8 12 18 13 30 2 30 -4 0 -9 -10 -9 -22z"/>
<path d="M2756 2225 c-3 -9 -6 -22 -5 -28 0 -7 5 -1 10 12 5 13 8 26 5 28 -2
2 -6 -3 -10 -12z"/>
<path d="M2814 2232 c5 -8 -1 -12 -16 -13 l-23 -1 23 -6 c13 -4 23 -11 22 -17
-1 -5 7 -11 17 -12 15 -2 16 -2 2 5 -9 4 -15 15 -13 24 1 10 -3 21 -8 25 -7 3
-8 1 -4 -5z"/>
<path d="M3031 2217 c-8 -10 -7 -14 2 -14 8 0 14 6 14 14 0 7 -1 13 -2 13 -2
0 -8 -6 -14 -13z"/>
<path d="M550 2216 c0 -2 7 -7 16 -10 8 -3 12 -2 9 4 -6 10 -25 14 -25 6z"/>
<path d="M2886 2211 c-19 -7 -19 -8 0 -13 13 -3 21 0 21 8 0 8 -1 14 -1 13 -1
0 -10 -4 -20 -8z"/>
<path d="M2939 2203 c-13 -17 -13 -17 6 -3 11 8 22 16 24 17 2 2 0 3 -6 3 -6
0 -17 -8 -24 -17z"/>
<path d="M735 2201 c-3 -5 0 -13 6 -17 8 -4 9 -3 5 4 -9 15 -1 15 27 1 21 -10
21 -10 3 5 -23 18 -32 20 -41 7z"/>
<path d="M630 2186 c7 -7 13 -7 20 0 6 6 3 10 -10 10 -13 0 -16 -4 -10 -10z"/>
<path d="M2987 2189 c7 -7 15 -10 18 -7 3 3 -2 9 -12 12 -14 6 -15 5 -6 -5z"/>
<path d="M715 2165 c0 -13 3 -21 8 -18 4 2 7 10 7 18 0 8 -3 16 -7 18 -5 3 -8
-5 -8 -18z"/>
<path d="M2868 2183 c7 -3 16 -2 19 1 4 3 -2 6 -13 5 -11 0 -14 -3 -6 -6z"/>
<path d="M2956 2182 c-5 -9 -2 -39 5 -46 3 -3 5 8 4 24 0 32 -1 35 -9 22z"/>
<path d="M693 2165 c0 -8 4 -12 9 -9 5 3 6 10 3 15 -9 13 -12 11 -12 -6z"/>
<path d="M760 2170 c0 -5 5 -10 11 -10 5 0 7 5 4 10 -3 6 -8 10 -11 10 -2 0
-4 -4 -4 -10z"/>
<path d="M820 2170 c0 -5 5 -10 11 -10 5 0 7 5 4 10 -3 6 -8 10 -11 10 -2 0
-4 -4 -4 -10z"/>
<path d="M3055 2161 c-3 -5 -2 -12 3 -15 5 -3 9 1 9 9 0 17 -3 19 -12 6z"/>
<path d="M535 2150 c3 -5 8 -10 11 -10 2 0 4 5 4 10 0 6 -5 10 -11 10 -5 0 -7
-4 -4 -10z"/>
<path d="M790 2149 c0 -5 5 -7 10 -4 6 3 10 -1 10 -10 0 -9 -4 -13 -10 -10 -6
4 -7 -1 -3 -11 6 -15 7 -15 15 1 5 9 7 23 4 31 -6 16 -26 19 -26 3z"/>
<path d="M840 2150 c-13 -8 -12 -10 3 -10 9 0 17 -4 17 -9 0 -5 -8 -12 -17
-14 -16 -4 -16 -5 -1 -6 21 -1 31 15 21 33 -6 11 -13 12 -23 6z"/>
<path d="M2838 2153 c7 -3 16 -2 19 1 4 3 -2 6 -13 5 -11 0 -14 -3 -6 -6z"/>
<path d="M2990 2150 c0 -4 7 -7 15 -6 23 3 26 12 5 13 -11 1 -20 -2 -20 -7z"/>
<path d="M649 2133 c-13 -16 -12 -17 4 -4 9 7 17 15 17 17 0 8 -8 3 -21 -13z"/>
<path d="M671 2122 c-7 -14 -6 -18 9 -18 13 0 16 4 10 12 -6 6 -7 14 -3 17 3
4 3 7 0 7 -3 0 -11 -8 -16 -18z"/>
<path d="M2839 2123 c-13 -17 -13 -17 6 -3 11 8 22 16 24 17 2 2 0 3 -6 3 -6
0 -17 -8 -24 -17z"/>
<path d="M513 2115 c0 -8 4 -12 9 -9 5 3 6 10 3 15 -9 13 -12 11 -12 -6z"/>
<path d="M2910 2120 c-9 -6 -10 -10 -3 -10 6 0 15 5 18 10 8 12 4 12 -15 0z"/>
<path d="M750 2111 c8 -5 18 -7 22 -5 4 3 8 -4 8 -16 0 -12 -4 -19 -8 -16 -4
2 -14 0 -22 -5 -11 -7 -8 -8 10 -6 18 3 25 10 25 27 0 17 -7 24 -25 27 -18 2
-21 1 -10 -6z"/>
<path d="M2870 2109 c0 -5 5 -7 10 -4 6 3 10 8 10 11 0 2 -4 4 -10 4 -5 0 -10
-5 -10 -11z"/>
<path d="M597 2100 c7 -8 23 -15 35 -17 12 -2 19 -1 16 3 -3 3 -12 6 -20 8 -7
1 -20 5 -28 10 -12 7 -13 6 -3 -4z"/>
<path d="M2799 2093 c-8 -9 -9 -14 -2 -10 6 4 13 2 15 -5 2 -6 15 -13 29 -15
18 -2 20 -1 9 6 -8 5 -18 7 -22 5 -7 -5 -12 10 -9 29 2 12 -6 8 -20 -10z"/>
<path d="M2850 2095 c0 -8 4 -15 10 -15 5 0 7 7 4 15 -4 8 -8 15 -10 15 -2 0
-4 -7 -4 -15z"/>
<path d="M730 2090 c0 -5 5 -10 10 -10 6 0 10 5 10 10 0 6 -4 10 -10 10 -5 0
-10 -4 -10 -10z"/>
<path d="M820 2090 c0 -5 5 -10 10 -10 6 0 10 5 10 10 0 6 -4 10 -10 10 -5 0
-10 -4 -10 -10z"/>
<path d="M2913 2081 c1 -12 10 -30 21 -39 20 -16 20 -16 6 2 -8 10 -15 25 -16
33 -4 24 -13 27 -11 4z"/>
<path d="M3076 2092 c-3 -5 1 -9 9 -9 8 0 12 4 9 9 -3 4 -7 8 -9 8 -2 0 -6 -4
-9 -8z"/>
<path d="M2770 2070 c0 -5 4 -10 8 -10 5 0 14 -10 20 -22 10 -23 10 -23 9 -2
-1 22 -37 54 -37 34z"/>
<path d="M2946 2068 c3 -4 9 -8 15 -8 5 0 9 4 9 8 0 5 -7 9 -15 9 -8 0 -12 -4
-9 -9z"/>
<path d="M619 2043 c-13 -16 -12 -17 4 -4 9 7 17 15 17 17 0 8 -8 3 -21 -13z"/>
<path d="M682 2048 c-15 -15 -15 -28 0 -28 6 0 8 3 5 7 -4 3 -2 12 4 20 14 16
7 17 -9 1z"/>
<path d="M2877 2042 c4 -10 2 -13 -5 -8 -6 3 -14 1 -18 -5 -4 -7 -3 -9 4 -5 5
3 13 0 15 -6 4 -10 6 -10 6 0 1 7 5 10 11 7 6 -4 7 1 3 11 -5 13 -3 15 8 9 8
-5 11 -4 6 0 -14 16 -36 14 -30 -3z"/>
<path d="M3087 2049 c7 -7 15 -10 18 -7 3 3 -2 9 -12 12 -14 6 -15 5 -6 -5z"/>
<path d="M758 2043 c7 -3 16 -2 19 1 4 3 -2 6 -13 5 -11 0 -14 -3 -6 -6z"/>
<path d="M2828 2043 c7 -3 16 -2 19 1 4 3 -2 6 -13 5 -11 0 -14 -3 -6 -6z"/>
<path d="M725 2030 c-3 -5 -1 -18 5 -27 9 -15 10 -14 4 6 -4 17 -3 21 6 16 9
-5 11 -4 6 3 -9 15 -13 15 -21 2z"/>
<path d="M790 2030 c0 -5 5 -10 10 -10 6 0 10 5 10 10 0 6 -4 10 -10 10 -5 0
-10 -4 -10 -10z"/>
<path d="M556 2003 c-6 -14 -5 -15 5 -6 7 7 10 15 7 18 -3 3 -9 -2 -12 -12z"/>
<path d="M771 2003 c12 -15 12 -16 -3 -10 -10 3 -18 2 -18 -3 0 -11 23 -14 33
-4 8 8 -3 34 -15 34 -6 0 -4 -8 3 -17z"/>
<path d="M2830 2013 c14 -7 12 -23 -2 -20 -8 1 -13 -8 -13 -20 0 -13 4 -23 9
-22 5 0 13 -5 18 -13 8 -10 9 -10 5 2 -2 8 -10 14 -16 13 -6 -2 -11 6 -11 17
0 11 6 19 13 18 6 -2 12 3 12 11 0 8 -6 15 -13 17 -7 1 -8 0 -2 -3z"/>
<path d="M2910 2010 c0 -5 5 -10 10 -10 6 0 10 5 10 10 0 6 -4 10 -10 10 -5 0
-10 -4 -10 -10z"/>
<path d="M2965 2009 c-3 -4 2 -6 10 -5 21 3 28 13 10 13 -9 0 -18 -4 -20 -8z"/>
<path d="M590 1996 c0 -2 7 -7 16 -10 8 -3 12 -2 9 4 -6 10 -25 14 -25 6z"/>
<path d="M3055 1990 c-3 -5 -1 -10 4 -10 6 0 11 5 11 10 0 6 -2 10 -4 10 -3 0
-8 -4 -11 -10z"/>
<path d="M2881 1983 c-1 -17 16 -25 25 -12 4 7 3 9 -4 5 -5 -3 -13 0 -15 6 -4
9 -6 10 -6 1z"/>
<path d="M2924 1968 l-19 -23 23 19 c12 11 22 21 22 23 0 8 -8 2 -26 -19z"/>
<path d="M731 1964 c0 -11 3 -14 6 -6 3 7 2 16 -1 19 -3 4 -6 -2 -5 -13z"/>
<path d="M790 1971 c0 -5 5 -13 10 -16 6 -3 10 -2 10 4 0 5 -4 13 -10 16 -5 3
-10 2 -10 -4z"/>
<path d="M2772 1966 c7 -8 15 -12 17 -11 5 6 -10 25 -20 25 -5 0 -4 -6 3 -14z"/>
<path d="M2850 1970 c0 -5 5 -10 10 -10 6 0 10 5 10 10 0 6 -4 10 -10 10 -5 0
-10 -4 -10 -10z"/>
<path d="M3050 1950 c0 -5 5 -10 11 -10 5 0 7 5 4 10 -3 6 -8 10 -11 10 -2 0
-4 -4 -4 -10z"/>
<path d="M2866 1933 c-6 -14 -5 -15 5 -6 7 7 10 15 7 18 -3 3 -9 -2 -12 -12z"/>
<path d="M2934 1936 c1 -8 5 -18 8 -22 4 -3 5 1 4 10 -1 8 -5 18 -8 22 -4 3
-5 -1 -4 -10z"/>
<path d="M619 1923 c-13 -16 -12 -17 4 -4 14 11 20 11 35 0 15 -13 16 -12 3 4
-7 9 -17 17 -21 17 -4 0 -14 -8 -21 -17z"/>
<path d="M2774 1928 c11 -6 15 -17 11 -31 -5 -17 -4 -19 4 -7 6 8 16 15 22 15
7 0 13 6 15 13 1 7 0 8 -2 3 -3 -6 -12 -7 -20 -4 -12 4 -12 8 -4 13 7 4 0 8
-15 8 -23 0 -25 -2 -11 -10z"/>
<path d="M2976 1923 c-6 -14 -5 -15 5 -6 7 7 10 15 7 18 -3 3 -9 -2 -12 -12z"/>
<path d="M756 1917 c3 -10 9 -15 12 -12 3 3 0 11 -7 18 -10 9 -11 8 -5 -6z"/>
<path d="M716 1908 c5 -8 1 -9 -12 -4 -14 5 -16 4 -7 -5 6 -6 16 -8 22 -5 14
9 14 26 0 26 -5 0 -7 -5 -3 -12z"/>
<path d="M2747 1906 c-4 -10 -1 -13 9 -9 15 6 19 23 5 23 -5 0 -11 -7 -14 -14z"/>
<path d="M2836 1905 c-3 -9 -6 -22 -5 -28 0 -7 5 -1 10 12 5 13 8 26 5 28 -2
2 -6 -3 -10 -12z"/>
<path d="M736 1895 c-3 -8 -1 -15 4 -15 6 0 10 7 10 15 0 8 -2 15 -4 15 -2 0
-6 -7 -10 -15z"/>
<path d="M2908 1903 c7 -3 16 -2 19 1 4 3 -2 6 -13 5 -11 0 -14 -3 -6 -6z"/>
<path d="M630 1885 c5 -7 8 -14 5 -17 -3 -2 2 -5 10 -5 10 0 12 4 5 12 -5 7
-8 14 -5 17 3 2 -2 5 -10 5 -10 0 -12 -4 -5 -12z"/>
<path d="M777 1894 c-3 -4 1 -20 9 -36 12 -24 18 -27 30 -17 8 6 14 16 14 22
0 6 -7 2 -16 -9 -14 -17 -15 -17 -10 -1 3 10 2 16 -3 13 -5 -3 -12 1 -15 10
-5 12 -1 14 17 9 17 -5 19 -4 7 4 -17 12 -24 13 -33 5z"/>
<path d="M2870 1880 c6 -11 13 -20 16 -20 2 0 0 9 -6 20 -6 11 -13 20 -16 20
-2 0 0 -9 6 -20z"/>
<path d="M2757 1875 c-4 -8 -3 -16 1 -19 4 -3 9 4 9 15 2 23 -3 25 -10 4z"/>
<path d="M2792 1874 c-7 -8 -8 -14 -3 -14 10 0 25 19 20 25 -2 1 -10 -3 -17
-11z"/>
<path d="M3075 1870 c3 -5 8 -10 11 -10 2 0 4 5 4 10 0 6 -5 10 -11 10 -5 0
-7 -4 -4 -10z"/>
<path d="M748 1863 c7 -3 16 -2 19 1 4 3 -2 6 -13 5 -11 0 -14 -3 -6 -6z"/>
<path d="M2973 1855 c0 -8 4 -15 9 -15 4 0 8 4 8 9 0 6 -4 12 -8 15 -5 3 -9
-1 -9 -9z"/>
<path d="M580 1856 c0 -2 8 -10 18 -17 15 -13 16 -12 3 4 -13 16 -21 21 -21
13z"/>
<path d="M690 1849 c0 -5 3 -8 8 -7 4 1 18 -3 32 -10 22 -12 23 -11 8 1 -10 8
-16 16 -13 18 2 3 -5 5 -15 6 -11 1 -20 -2 -20 -8z"/>
<path d="M2810 1850 c0 -5 5 -10 10 -10 6 0 10 5 10 10 0 6 -4 10 -10 10 -5 0
-10 -4 -10 -10z"/>
<path d="M2850 1850 c0 -5 5 -10 10 -10 6 0 10 5 10 10 0 6 -4 10 -10 10 -5 0
-10 -4 -10 -10z"/>
<path d="M765 1835 c11 -9 19 -19 18 -23 -2 -4 3 -8 10 -8 6 -1 17 -2 22 -3 6
-1 -1 -8 -15 -16 -28 -16 -19 -21 10 -5 26 14 15 43 -12 34 -13 -4 -18 -2 -14
4 4 6 -4 16 -16 22 -22 11 -22 11 -3 -5z"/>
<path d="M2880 1846 c0 -2 7 -7 16 -10 8 -3 12 -2 9 4 -6 10 -25 14 -25 6z"/>
<path d="M630 1826 c7 -7 13 -7 20 0 6 6 3 10 -10 10 -13 0 -16 -4 -10 -10z"/>
<path d="M673 1833 c4 -3 1 -13 -6 -22 -11 -14 -10 -14 5 -2 16 12 16 31 1 31
-4 0 -3 -3 0 -7z"/>
<path d="M830 1830 c0 -5 5 -10 11 -10 5 0 7 5 4 10 -3 6 -8 10 -11 10 -2 0
-4 -4 -4 -10z"/>
<path d="M2765 1830 c3 -5 11 -10 16 -10 6 0 7 5 4 10 -3 6 -11 10 -16 10 -6
0 -7 -4 -4 -10z"/>
<path d="M2940 1836 c0 -2 8 -10 18 -17 15 -13 16 -12 3 4 -13 16 -21 21 -21
13z"/>
<path d="M2836 1813 c-6 -14 -5 -15 5 -6 7 7 10 15 7 18 -3 3 -9 -2 -12 -12z"/>
<path d="M586 1812 c-3 -5 1 -9 9 -9 8 0 12 4 9 9 -3 4 -7 8 -9 8 -2 0 -6 -4
-9 -8z"/>
<path d="M2920 1816 c0 -2 8 -10 18 -17 15 -13 16 -12 3 4 -13 16 -21 21 -21
13z"/>
<path d="M635 1799 c-4 -6 -5 -12 -2 -15 2 -3 7 2 10 11 7 17 1 20 -8 4z"/>
<path d="M753 1795 c0 -8 4 -15 9 -15 4 0 8 4 8 9 0 6 -4 12 -8 15 -5 3 -9 -1
-9 -9z"/>
<path d="M2855 1801 c-3 -5 0 -13 6 -17 7 -4 9 -3 5 4 -3 5 0 13 6 15 9 4 10
6 1 6 -6 1 -14 -3 -18 -8z"/>
<path d="M2800 1788 c-12 -8 -12 -9 2 -5 9 3 19 1 22 -6 3 -9 5 -9 5 0 1 18
-13 23 -29 11z"/>
<path d="M3010 1790 c0 -5 5 -10 11 -10 5 0 7 5 4 10 -3 6 -8 10 -11 10 -2 0
-4 -4 -4 -10z"/>
<path d="M594 1776 c1 -8 5 -18 8 -22 4 -3 5 1 4 10 -1 8 -5 18 -8 22 -4 3 -5
-1 -4 -10z"/>
<path d="M649 1773 c-13 -16 -12 -17 4 -4 9 7 17 15 17 17 0 8 -8 3 -21 -13z"/>
<path d="M702 1774 c11 -11 21 -14 26 -9 4 6 6 9 3 8 -2 -1 -13 3 -25 9 -20
10 -20 10 -4 -8z"/>
<path d="M2847 1769 c7 -7 15 -10 18 -7 3 3 -2 9 -12 12 -14 6 -15 5 -6 -5z"/>
<path d="M2886 1771 c8 -9 44 -11 44 -3 0 4 -11 8 -25 8 -13 0 -22 -2 -19 -5z"/>
<path d="M2946 1768 c3 -5 10 -6 15 -3 13 9 11 12 -6 12 -8 0 -12 -4 -9 -9z"/>
<path d="M761 1763 c-1 -17 16 -25 25 -12 4 7 3 9 -4 5 -5 -3 -13 0 -15 6 -4
9 -6 10 -6 1z"/>
<path d="M2790 1755 c-10 -13 -11 -18 -1 -28 10 -9 15 -9 24 3 7 9 21 14 32
13 l20 -3 -20 9 c-14 6 -23 5 -32 -7 -7 -8 -16 -13 -19 -9 -4 4 -1 13 6 22 7
8 10 15 7 15 -2 0 -10 -7 -17 -15z"/>
<path d="M520 1750 c-12 -7 -10 -9 7 -7 12 0 19 5 17 9 -6 10 -6 10 -24 -2z"/>
<path d="M3010 1749 c0 -5 5 -7 10 -4 6 3 10 8 10 11 0 2 -4 4 -10 4 -5 0 -10
-5 -10 -11z"/>
<path d="M689 1733 c-8 -9 -9 -14 -2 -10 6 4 13 1 16 -5 3 -7 4 -3 4 10 -1 26
-1 26 -18 5z"/>
<path d="M795 1740 c-3 -5 -1 -10 4 -10 6 0 11 5 11 10 0 6 -2 10 -4 10 -3 0
-8 -4 -11 -10z"/>
<path d="M2896 1737 c3 -10 9 -15 12 -12 3 3 0 11 -7 18 -10 9 -11 8 -5 -6z"/>
<path d="M3109 1733 c-13 -16 -12 -17 4 -4 16 13 21 21 13 21 -2 0 -10 -8 -17
-17z"/>
<path d="M736 1721 c-4 -5 3 -7 14 -4 23 6 26 13 6 13 -8 0 -17 -4 -20 -9z"/>
<path d="M2835 1719 c-4 -6 -5 -12 -2 -15 2 -3 7 2 10 11 7 17 1 20 -8 4z"/>
<path d="M667 1709 c7 -9 11 -18 8 -21 -3 -3 3 -11 12 -19 16 -12 17 -12 6 2
-7 9 -11 18 -8 21 3 3 -3 11 -12 19 -16 12 -17 12 -6 -2z"/>
<path d="M790 1711 c8 -5 18 -7 24 -4 5 4 7 -1 3 -10 -3 -10 -2 -17 4 -17 22
0 3 33 -21 37 -18 2 -21 1 -10 -6z"/>
<path d="M2868 1706 c12 -23 39 -30 39 -10 0 10 -4 11 -10 5 -7 -7 -15 -5 -24
7 -13 16 -14 15 -5 -2z"/>
<path d="M3010 1710 c0 -5 5 -10 11 -10 5 0 7 5 4 10 -3 6 -8 10 -11 10 -2 0
-4 -4 -4 -10z"/>
<path d="M2782 1690 c0 -14 2 -19 5 -12 2 6 2 18 0 25 -3 6 -5 1 -5 -13z"/>
<path d="M2812 1690 c0 -14 2 -19 5 -12 2 6 2 18 0 25 -3 6 -5 1 -5 -13z"/>
<path d="M2944 1688 l-19 -23 23 19 c12 11 22 21 22 23 0 8 -8 2 -26 -19z"/>
<path d="M704 1692 c4 -3 14 -7 22 -8 9 -1 13 0 10 4 -4 3 -14 7 -22 8 -9 1
-13 0 -10 -4z"/>
<path d="M770 1685 c0 -8 2 -15 4 -15 2 0 6 7 10 15 3 8 1 15 -4 15 -6 0 -10
-7 -10 -15z"/>
<path d="M790 1670 c0 -5 5 -10 11 -10 5 0 7 5 4 10 -3 6 -8 10 -11 10 -2 0
-4 -4 -4 -10z"/>
<path d="M2830 1673 c0 -28 52 -40 71 -15 12 15 12 15 -1 5 -20 -15 -49 -11
-61 8 -5 9 -9 10 -9 2z"/>
<path d="M627 1649 c7 -7 15 -10 18 -7 3 3 -2 9 -12 12 -14 6 -15 5 -6 -5z"/>
<path d="M753 1644 c0 -7 6 -15 13 -18 9 -3 11 1 7 11 -5 12 -3 14 8 8 8 -5
11 -4 6 0 -13 14 -34 14 -34 -1z"/>
<path d="M2781 1647 c-1 -11 -6 -15 -13 -11 -7 5 -8 3 -3 -5 10 -16 29 2 22
21 -4 8 -6 7 -6 -5z"/>
<path d="M2935 1649 c-3 -4 2 -6 10 -5 21 3 28 13 10 13 -9 0 -18 -4 -20 -8z"/>
<path d="M673 1619 c-1 -10 6 -24 15 -31 15 -12 16 -11 3 5 -10 12 -11 20 -2
30 8 10 7 14 -2 14 -7 0 -14 -8 -14 -18z"/>
<path d="M850 1630 c0 -5 5 -10 11 -10 5 0 7 5 4 10 -3 6 -8 10 -11 10 -2 0
-4 -4 -4 -10z"/>
<path d="M2995 1629 c-3 -4 2 -6 10 -5 21 3 28 13 10 13 -9 0 -18 -4 -20 -8z"/>
<path d="M833 1611 c0 -11 5 -18 9 -15 4 3 5 11 1 19 -7 21 -12 19 -10 -4z"/>
<path d="M2814 1619 c1 -7 10 -13 19 -15 9 -1 15 2 11 7 -3 5 -9 7 -14 4 -4
-3 -11 0 -13 5 -3 6 -4 5 -3 -1z"/>
<path d="M581 1606 c-9 -11 -9 -16 1 -22 7 -4 10 -4 6 1 -4 4 -3 14 3 22 6 7
9 13 6 13 -2 0 -10 -6 -16 -14z"/>
<path d="M626 1612 c-3 -5 1 -9 9 -9 8 0 15 4 15 9 0 4 -4 8 -9 8 -6 0 -12 -4
-15 -8z"/>
<path d="M790 1610 c0 -6 7 -10 15 -10 8 0 15 2 15 4 0 2 -7 6 -15 10 -8 3
-15 1 -15 -4z"/>
<path d="M2750 1610 c0 -5 5 -10 11 -10 5 0 7 5 4 10 -3 6 -8 10 -11 10 -2 0
-4 -4 -4 -10z"/>
<path d="M2895 1609 c-3 -4 2 -6 10 -5 21 3 28 13 10 13 -9 0 -18 -4 -20 -8z"/>
<path d="M753 1580 c6 -8 12 -16 13 -18 1 -1 4 5 6 15 4 13 0 19 -13 19 -14 0
-16 -3 -6 -16z"/>
<path d="M2775 1589 c-4 -6 -5 -12 -2 -15 2 -3 7 2 10 11 7 17 1 20 -8 4z"/>
<path d="M2970 1589 c0 -5 5 -7 10 -4 6 3 10 8 10 11 0 2 -4 4 -10 4 -5 0 -10
-5 -10 -11z"/>
<path d="M2806 1581 c-19 -7 -19 -8 0 -13 13 -3 21 0 21 8 0 8 -1 14 -1 13 -1
0 -10 -4 -20 -8z"/>
<path d="M720 1576 c0 -2 8 -10 18 -17 15 -13 16 -12 3 4 -13 16 -21 21 -21
13z"/>
<path d="M792 1557 c-8 -10 -6 -13 11 -14 12 0 16 1 9 4 -6 3 -10 9 -6 14 8
14 -2 11 -14 -4z"/>
<path d="M835 1540 c-3 -6 1 -7 9 -4 18 7 21 14 7 14 -6 0 -13 -4 -16 -10z"/>
<path d="M2770 1528 c0 -4 4 -8 9 -8 6 0 12 4 15 8 3 5 -1 9 -9 9 -8 0 -15 -4
-15 -9z"/>
<path d="M2735 1510 c-3 -6 1 -7 9 -4 18 7 21 14 7 14 -6 0 -13 -4 -16 -10z"/>
<path d="M2832 1501 c7 -9 13 -18 15 -20 1 -2 1 5 0 16 0 11 -7 20 -14 20 -10
0 -10 -4 -1 -16z"/>
<path d="M2867 1509 c7 -7 15 -10 18 -7 3 3 -2 9 -12 12 -14 6 -15 5 -6 -5z"/>
<path d="M770 1506 c0 -2 8 -10 18 -17 15 -13 16 -12 3 4 -13 16 -21 21 -21
13z"/>
<path d="M2790 1489 c-13 -9 -13 -10 1 -6 9 3 23 0 30 -6 11 -10 11 -9 0 6 -7
9 -14 17 -15 17 0 0 -8 -5 -16 -11z"/>
<path d="M654 1432 c4 -3 14 -7 22 -8 9 -1 13 0 10 4 -4 3 -14 7 -22 8 -9 1
-13 0 -10 -4z"/>
<path d="M2896 1352 c-2 -4 -1 -14 4 -22 7 -11 9 -9 7 8 -1 24 -3 26 -11 14z"/>
<path d="M734 1326 c1 -8 5 -18 8 -22 4 -3 5 1 4 10 -1 8 -5 18 -8 22 -4 3 -5
-1 -4 -10z"/>
<path d="M686 1288 c3 -5 10 -6 15 -3 13 9 11 12 -6 12 -8 0 -12 -4 -9 -9z"/>
</g>
</svg>
